<?xml version="1.0" encoding="UTF-8" standalone="no"?><svg xmlns="http://www.w3.org/2000/svg" xmlns:xlink="http://www.w3.org/1999/xlink" clip-rule="evenodd" stroke-miterlimit="10" viewBox="0 0 308 30"><desc>SVG generated by Keynote</desc><defs></defs><g transform="matrix(1.00, 0.00, -0.00, -1.00, 0.0, 30.0)"><text xml:space="preserve" font-family="IM_FELL_Great_Primer_SC,IM FELL Great Primer SC" font-size="36.0" fill="#FFFFFF" transform="matrix(1.00, 0.00, -0.00, -1.00, -0.8, 2.7)">S</text><text xml:space="preserve" font-family="IM_FELL_Great_Primer_SC,IM FELL Great Primer SC" font-size="36.0" fill="#FFFFFF" transform="matrix(1.00, 0.00, -0.00, -1.00, 19.7, 2.7)">i</text><text xml:space="preserve" font-family="IM_FELL_Great_Primer_SC,IM FELL Great Primer SC" font-size="36.0" fill="#FFFFFF" transform="matrix(1.00, 0.00, -0.00, -1.00, 31.6, 2.7)">g</text><text xml:space="preserve" font-family="IM_FELL_Great_Primer_SC,IM FELL Great Primer SC" font-size="36.0" fill="#FFFFFF" transform="matrix(1.00, 0.00, -0.00, -1.00, 50.7, 2.7)">n</text><text xml:space="preserve" font-family="IM_FELL_Great_Primer_SC,IM FELL Great Primer SC" font-size="36.0" fill="#FFFFFF" transform="matrix(1.00, 0.00, -0.00, -1.00, 71.6, 2.7)">i</text><text xml:space="preserve" font-family="IM_FELL_Great_Primer_SC,IM FELL Great Primer SC" font-size="36.0" fill="#FFFFFF" transform="matrix(1.00, 0.00, -0.00, -1.00, 83.9, 2.7)">f</text><text xml:space="preserve" font-family="IM_FELL_Great_Primer_SC,IM FELL Great Primer SC" font-size="36.0" fill="#FFFFFF" transform="matrix(1.00, 0.00, -0.00, -1.00, 100.3, 2.7)">i</text><text xml:space="preserve" font-family="IM_FELL_Great_Primer_SC,IM FELL Great Primer SC" font-size="36.0" fill="#FFFFFF" transform="matrix(1.00, 0.00, -0.00, -1.00, 112.2, 2.7)">c</text><text xml:space="preserve" font-family="IM_FELL_Great_Primer_SC,IM FELL Great Primer SC" font-size="36.0" fill="#FFFFFF" transform="matrix(1.00, 0.00, -0.00, -1.00, 127.8, 2.7)">a</text><text xml:space="preserve" font-family="IM_FELL_Great_Primer_SC,IM FELL Great Primer SC" font-size="36.0" fill="#FFFFFF" transform="matrix(1.00, 0.00, -0.00, -1.00, 144.3, 2.7)">n</text><text xml:space="preserve" font-family="IM_FELL_Great_Primer_SC,IM FELL Great Primer SC" font-size="36.0" fill="#FFFFFF" transform="matrix(1.00, 0.00, -0.00, -1.00, 165.2, 2.7)">t</text><text xml:space="preserve" font-family="IM_FELL_Great_Primer_SC,IM FELL Great Primer SC" font-size="36.0" fill="#FFFFFF" transform="matrix(1.00, 0.00, -0.00, -1.00, 184.6, 2.7)"> </text><text xml:space="preserve" font-family="IM_FELL_Great_Primer_SC,IM FELL Great Primer SC" font-size="36.0" fill="#FFFFFF" transform="matrix(1.00, 0.00, -0.00, -1.00, 192.4, 2.7)">E</text><text xml:space="preserve" font-family="IM_FELL_Great_Primer_SC,IM FELL Great Primer SC" font-size="36.0" fill="#FFFFFF" transform="matrix(1.00, 0.00, -0.00, -1.00, 217.5, 2.7)">v</text><text xml:space="preserve" font-family="IM_FELL_Great_Primer_SC,IM FELL Great Primer SC" font-size="36.0" fill="#FFFFFF" transform="matrix(1.00, 0.00, -0.00, -1.00, 235.4, 2.7)">e</text><text xml:space="preserve" font-family="IM_FELL_Great_Primer_SC,IM FELL Great Primer SC" font-size="36.0" fill="#FFFFFF" transform="matrix(1.00, 0.00, -0.00, -1.00, 254.3, 2.7)">n</text><text xml:space="preserve" font-family="IM_FELL_Great_Primer_SC,IM FELL Great Primer SC" font-size="36.0" fill="#FFFFFF" transform="matrix(1.00, 0.00, -0.00, -1.00, 275.2, 2.7)">t</text><text xml:space="preserve" font-family="IM_FELL_Great_Primer_SC,IM FELL Great Primer SC" font-size="36.0" fill="#FFFFFF" transform="matrix(1.00, 0.00, -0.00, -1.00, 294.6, 2.7)">s</text></g></svg>