<?xml version="1.0" encoding="UTF-8" standalone="no"?><svg xmlns="http://www.w3.org/2000/svg" xmlns:xlink="http://www.w3.org/1999/xlink" clip-rule="evenodd" stroke-miterlimit="10" viewBox="0 0 483 28"><desc>SVG generated by Keynote</desc><defs></defs><g transform="matrix(1.00, 0.00, -0.00, -1.00, 0.0, 28.0)"><text xml:space="preserve" font-family="ArialMT,Arial" font-size="23.0" fill="#FFFFFF" transform="matrix(1.00, 0.00, -0.00, -1.00, 0.2, 6.8)">â—</text><text xml:space="preserve" font-family="IM_FELL_Great_Primer_Roman,IM FELL Great Primer" font-size="23.0" fill="#FFFFFF" transform="matrix(1.00, 0.00, -0.00, -1.00, 37.9, 7.4)">E</text><text xml:space="preserve" font-family="IM_FELL_Great_Primer_Roman,IM FELL Great Primer" font-size="23.0" fill="#FFFFFF" transform="matrix(1.00, 0.00, -0.00, -1.00, 53.9, 7.4)">v</text><text xml:space="preserve" font-family="IM_FELL_Great_Primer_Roman,IM FELL Great Primer" font-size="23.0" fill="#FFFFFF" transform="matrix(1.00, 0.00, -0.00, -1.00, 65.0, 7.4)">i</text><text xml:space="preserve" font-family="IM_FELL_Great_Primer_Roman,IM FELL Great Primer" font-size="23.0" fill="#FFFFFF" transform="matrix(1.00, 0.00, -0.00, -1.00, 71.3, 7.4)">d</text><text xml:space="preserve" font-family="IM_FELL_Great_Primer_Roman,IM FELL Great Primer" font-size="23.0" fill="#FFFFFF" transform="matrix(1.00, 0.00, -0.00, -1.00, 82.8, 7.4)">e</text><text xml:space="preserve" font-family="IM_FELL_Great_Primer_Roman,IM FELL Great Primer" font-size="23.0" fill="#FFFFFF" transform="matrix(1.00, 0.00, -0.00, -1.00, 92.4, 7.4)">n</text><text xml:space="preserve" font-family="IM_FELL_Great_Primer_Roman,IM FELL Great Primer" font-size="23.0" fill="#FFFFFF" transform="matrix(1.00, 0.00, -0.00, -1.00, 104.8, 7.4)">c</text><text xml:space="preserve" font-family="IM_FELL_Great_Primer_Roman,IM FELL Great Primer" font-size="23.0" fill="#FFFFFF" transform="matrix(1.00, 0.00, -0.00, -1.00, 114.5, 7.4)">e</text><text xml:space="preserve" font-family="IM_FELL_Great_Primer_Roman,IM FELL Great Primer" font-size="23.0" fill="#FFFFFF" transform="matrix(1.00, 0.00, -0.00, -1.00, 124.1, 7.4)"> </text><text xml:space="preserve" font-family="IM_FELL_Great_Primer_Roman,IM FELL Great Primer" font-size="23.0" fill="#FFFFFF" transform="matrix(1.00, 0.00, -0.00, -1.00, 129.1, 7.4)">o</text><text xml:space="preserve" font-family="IM_FELL_Great_Primer_Roman,IM FELL Great Primer" font-size="23.0" fill="#FFFFFF" transform="matrix(1.00, 0.00, -0.00, -1.00, 140.7, 7.4)">f</text><text xml:space="preserve" font-family="IM_FELL_Great_Primer_Roman,IM FELL Great Primer" font-size="23.0" fill="#FFFFFF" transform="matrix(1.00, 0.00, -0.00, -1.00, 148.5, 7.4)"> </text><text xml:space="preserve" font-family="IM_FELL_Great_Primer_Roman,IM FELL Great Primer" font-size="23.0" fill="#FFFFFF" transform="matrix(1.00, 0.00, -0.00, -1.00, 153.5, 7.4)">d</text><text xml:space="preserve" font-family="IM_FELL_Great_Primer_Roman,IM FELL Great Primer" font-size="23.0" fill="#FFFFFF" transform="matrix(1.00, 0.00, -0.00, -1.00, 165.0, 7.4)">e</text><text xml:space="preserve" font-family="IM_FELL_Great_Primer_Roman,IM FELL Great Primer" font-size="23.0" fill="#FFFFFF" transform="matrix(1.00, 0.00, -0.00, -1.00, 174.6, 7.4)">s</text><text xml:space="preserve" font-family="IM_FELL_Great_Primer_Roman,IM FELL Great Primer" font-size="23.0" fill="#FFFFFF" transform="matrix(1.00, 0.00, -0.00, -1.00, 183.0, 7.4)">t</text><text xml:space="preserve" font-family="IM_FELL_Great_Primer_Roman,IM FELL Great Primer" font-size="23.0" fill="#FFFFFF" transform="matrix(1.00, 0.00, -0.00, -1.00, 191.1, 7.4)">r</text><text xml:space="preserve" font-family="IM_FELL_Great_Primer_Roman,IM FELL Great Primer" font-size="23.0" fill="#FFFFFF" transform="matrix(1.00, 0.00, -0.00, -1.00, 199.9, 7.4)">u</text><text xml:space="preserve" font-family="IM_FELL_Great_Primer_Roman,IM FELL Great Primer" font-size="23.0" fill="#FFFFFF" transform="matrix(1.00, 0.00, -0.00, -1.00, 212.1, 7.4)">c</text><text xml:space="preserve" font-family="IM_FELL_Great_Primer_Roman,IM FELL Great Primer" font-size="23.0" fill="#FFFFFF" transform="matrix(1.00, 0.00, -0.00, -1.00, 221.8, 7.4)">t</text><text xml:space="preserve" font-family="IM_FELL_Great_Primer_Roman,IM FELL Great Primer" font-size="23.0" fill="#FFFFFF" transform="matrix(1.00, 0.00, -0.00, -1.00, 229.9, 7.4)">i</text><text xml:space="preserve" font-family="IM_FELL_Great_Primer_Roman,IM FELL Great Primer" font-size="23.0" fill="#FFFFFF" transform="matrix(1.00, 0.00, -0.00, -1.00, 236.1, 7.4)">o</text><text xml:space="preserve" font-family="IM_FELL_Great_Primer_Roman,IM FELL Great Primer" font-size="23.0" fill="#FFFFFF" transform="matrix(1.00, 0.00, -0.00, -1.00, 247.9, 7.4)">n</text><text xml:space="preserve" font-family="IM_FELL_Great_Primer_Roman,IM FELL Great Primer" font-size="23.0" fill="#FFFFFF" transform="matrix(1.00, 0.00, -0.00, -1.00, 260.3, 7.4)"> </text><text xml:space="preserve" font-family="IM_FELL_Great_Primer_Roman,IM FELL Great Primer" font-size="23.0" fill="#FFFFFF" transform="matrix(1.00, 0.00, -0.00, -1.00, 265.3, 7.4)">c</text><text xml:space="preserve" font-family="IM_FELL_Great_Primer_Roman,IM FELL Great Primer" font-size="23.0" fill="#FFFFFF" transform="matrix(1.00, 0.00, -0.00, -1.00, 275.0, 7.4)">a</text><text xml:space="preserve" font-family="IM_FELL_Great_Primer_Roman,IM FELL Great Primer" font-size="23.0" fill="#FFFFFF" transform="matrix(1.00, 0.00, -0.00, -1.00, 284.7, 7.4)">u</text><text xml:space="preserve" font-family="IM_FELL_Great_Primer_Roman,IM FELL Great Primer" font-size="23.0" fill="#FFFFFF" transform="matrix(1.00, 0.00, -0.00, -1.00, 297.0, 7.4)">s</text><text xml:space="preserve" font-family="IM_FELL_Great_Primer_Roman,IM FELL Great Primer" font-size="23.0" fill="#FFFFFF" transform="matrix(1.00, 0.00, -0.00, -1.00, 305.4, 7.4)">e</text><text xml:space="preserve" font-family="IM_FELL_Great_Primer_Roman,IM FELL Great Primer" font-size="23.0" fill="#FFFFFF" transform="matrix(1.00, 0.00, -0.00, -1.00, 314.9, 7.4)">d</text><text xml:space="preserve" font-family="IM_FELL_Great_Primer_Roman,IM FELL Great Primer" font-size="23.0" fill="#FFFFFF" transform="matrix(1.00, 0.00, -0.00, -1.00, 326.5, 7.4)"> </text><text xml:space="preserve" font-family="IM_FELL_Great_Primer_Roman,IM FELL Great Primer" font-size="23.0" fill="#FFFFFF" transform="matrix(1.00, 0.00, -0.00, -1.00, 331.4, 7.4)">b</text><text xml:space="preserve" font-family="IM_FELL_Great_Primer_Roman,IM FELL Great Primer" font-size="23.0" fill="#FFFFFF" transform="matrix(1.00, 0.00, -0.00, -1.00, 342.3, 7.4)">y</text><text xml:space="preserve" font-family="IM_FELL_Great_Primer_Roman,IM FELL Great Primer" font-size="23.0" fill="#FFFFFF" transform="matrix(1.00, 0.00, -0.00, -1.00, 353.1, 7.4)"> </text><text xml:space="preserve" font-family="IM_FELL_Great_Primer_Roman,IM FELL Great Primer" font-size="23.0" fill="#FFFFFF" transform="matrix(1.00, 0.00, -0.00, -1.00, 358.0, 7.4)">t</text><text xml:space="preserve" font-family="IM_FELL_Great_Primer_Roman,IM FELL Great Primer" font-size="23.0" fill="#FFFFFF" transform="matrix(1.00, 0.00, -0.00, -1.00, 366.2, 7.4)">h</text><text xml:space="preserve" font-family="IM_FELL_Great_Primer_Roman,IM FELL Great Primer" font-size="23.0" fill="#FFFFFF" transform="matrix(1.00, 0.00, -0.00, -1.00, 378.9, 7.4)">e</text><text xml:space="preserve" font-family="IM_FELL_Great_Primer_Roman,IM FELL Great Primer" font-size="23.0" fill="#FFFFFF" transform="matrix(1.00, 0.00, -0.00, -1.00, 388.4, 7.4)"> </text><text xml:space="preserve" font-family="IM_FELL_Great_Primer_Roman,IM FELL Great Primer" font-size="23.0" fill="#FFFFFF" transform="matrix(1.00, 0.00, -0.00, -1.00, 393.4, 7.4)">e</text><text xml:space="preserve" font-family="IM_FELL_Great_Primer_Roman,IM FELL Great Primer" font-size="23.0" fill="#FFFFFF" transform="matrix(1.00, 0.00, -0.00, -1.00, 402.9, 7.4)">x</text><text xml:space="preserve" font-family="IM_FELL_Great_Primer_Roman,IM FELL Great Primer" font-size="23.0" fill="#FFFFFF" transform="matrix(1.00, 0.00, -0.00, -1.00, 413.1, 7.4)">p</text><text xml:space="preserve" font-family="IM_FELL_Great_Primer_Roman,IM FELL Great Primer" font-size="23.0" fill="#FFFFFF" transform="matrix(1.00, 0.00, -0.00, -1.00, 424.5, 7.4)">l</text><text xml:space="preserve" font-family="IM_FELL_Great_Primer_Roman,IM FELL Great Primer" font-size="23.0" fill="#FFFFFF" transform="matrix(1.00, 0.00, -0.00, -1.00, 430.6, 7.4)">o</text><text xml:space="preserve" font-family="IM_FELL_Great_Primer_Roman,IM FELL Great Primer" font-size="23.0" fill="#FFFFFF" transform="matrix(1.00, 0.00, -0.00, -1.00, 442.4, 7.4)">s</text><text xml:space="preserve" font-family="IM_FELL_Great_Primer_Roman,IM FELL Great Primer" font-size="23.0" fill="#FFFFFF" transform="matrix(1.00, 0.00, -0.00, -1.00, 450.8, 7.4)">i</text><text xml:space="preserve" font-family="IM_FELL_Great_Primer_Roman,IM FELL Great Primer" font-size="23.0" fill="#FFFFFF" transform="matrix(1.00, 0.00, -0.00, -1.00, 457.0, 7.4)">o</text><text xml:space="preserve" font-family="IM_FELL_Great_Primer_Roman,IM FELL Great Primer" font-size="23.0" fill="#FFFFFF" transform="matrix(1.00, 0.00, -0.00, -1.00, 468.7, 7.4)">n</text></g></svg>