<?xml version="1.0" encoding="UTF-8" standalone="no"?><svg xmlns="http://www.w3.org/2000/svg" xmlns:xlink="http://www.w3.org/1999/xlink" clip-rule="evenodd" stroke-miterlimit="10" viewBox="0 0 132 22"><desc>SVG generated by Keynote</desc><defs></defs><g transform="matrix(1.00, 0.00, -0.00, -1.00, 0.0, 22.0)"><text xml:space="preserve" font-family="LucidaGrande,Lucida Grande" font-size="16.0" fill="#FFFFFF" transform="matrix(1.00, 0.00, -0.00, -1.00, 0.2, 5.7)">â</text><text xml:space="preserve" font-family="IM_FELL_Great_Primer_Roman,IM FELL Great Primer" font-size="16.0" fill="#FFFFFF" transform="matrix(1.00, 0.00, -0.00, -1.00, 12.8, 6.2)">I</text><text xml:space="preserve" font-family="IM_FELL_Great_Primer_Roman,IM FELL Great Primer" font-size="16.0" fill="#FFFFFF" transform="matrix(1.00, 0.00, -0.00, -1.00, 19.6, 6.2)">m</text><text xml:space="preserve" font-family="IM_FELL_Great_Primer_Roman,IM FELL Great Primer" font-size="16.0" fill="#FFFFFF" transform="matrix(1.00, 0.00, -0.00, -1.00, 33.1, 6.2)">p</text><text xml:space="preserve" font-family="IM_FELL_Great_Primer_Roman,IM FELL Great Primer" font-size="16.0" fill="#FFFFFF" transform="matrix(1.00, 0.00, -0.00, -1.00, 41.1, 6.2)">a</text><text xml:space="preserve" font-family="IM_FELL_Great_Primer_Roman,IM FELL Great Primer" font-size="16.0" fill="#FFFFFF" transform="matrix(1.00, 0.00, -0.00, -1.00, 47.9, 6.2)">c</text><text xml:space="preserve" font-family="IM_FELL_Great_Primer_Roman,IM FELL Great Primer" font-size="16.0" fill="#FFFFFF" transform="matrix(1.00, 0.00, -0.00, -1.00, 54.6, 6.2)">t</text><text xml:space="preserve" font-family="IM_FELL_Great_Primer_Roman,IM FELL Great Primer" font-size="16.0" fill="#FFFFFF" transform="matrix(1.00, 0.00, -0.00, -1.00, 60.3, 6.2)"> </text><text xml:space="preserve" font-family="IM_FELL_Great_Primer_Roman,IM FELL Great Primer" font-size="16.0" fill="#FFFFFF" transform="matrix(1.00, 0.00, -0.00, -1.00, 63.7, 6.2)">o</text><text xml:space="preserve" font-family="IM_FELL_Great_Primer_Roman,IM FELL Great Primer" font-size="16.0" fill="#FFFFFF" transform="matrix(1.00, 0.00, -0.00, -1.00, 71.9, 6.2)">n</text><text xml:space="preserve" font-family="IM_FELL_Great_Primer_Roman,IM FELL Great Primer" font-size="16.0" fill="#FFFFFF" transform="matrix(1.00, 0.00, -0.00, -1.00, 80.6, 6.2)"> </text><text xml:space="preserve" font-family="IM_FELL_Great_Primer_Roman,IM FELL Great Primer" font-size="16.0" fill="#FFFFFF" transform="matrix(1.00, 0.00, -0.00, -1.00, 84.0, 6.2)">h</text><text xml:space="preserve" font-family="IM_FELL_Great_Primer_Roman,IM FELL Great Primer" font-size="16.0" fill="#FFFFFF" transform="matrix(1.00, 0.00, -0.00, -1.00, 92.9, 6.2)">i</text><text xml:space="preserve" font-family="IM_FELL_Great_Primer_Roman,IM FELL Great Primer" font-size="16.0" fill="#FFFFFF" transform="matrix(1.00, 0.00, -0.00, -1.00, 97.3, 6.2)">s</text><text xml:space="preserve" font-family="IM_FELL_Great_Primer_Roman,IM FELL Great Primer" font-size="16.0" fill="#FFFFFF" transform="matrix(1.00, 0.00, -0.00, -1.00, 103.1, 6.2)">t</text><text xml:space="preserve" font-family="IM_FELL_Great_Primer_Roman,IM FELL Great Primer" font-size="16.0" fill="#FFFFFF" transform="matrix(1.00, 0.00, -0.00, -1.00, 108.8, 6.2)">o</text><text xml:space="preserve" font-family="IM_FELL_Great_Primer_Roman,IM FELL Great Primer" font-size="16.0" fill="#FFFFFF" transform="matrix(1.00, 0.00, -0.00, -1.00, 116.9, 6.2)">r</text><text xml:space="preserve" font-family="IM_FELL_Great_Primer_Roman,IM FELL Great Primer" font-size="16.0" fill="#FFFFFF" transform="matrix(1.00, 0.00, -0.00, -1.00, 122.9, 6.2)">y</text></g></svg>