<?xml version="1.0" encoding="UTF-8" standalone="no"?><svg xmlns="http://www.w3.org/2000/svg" xmlns:xlink="http://www.w3.org/1999/xlink" clip-rule="evenodd" stroke-miterlimit="10" viewBox="0 0 517 18"><desc>SVG generated by Keynote</desc><defs></defs><g transform="matrix(1.00, 0.00, -0.00, -1.00, 0.0, 18.0)"><text xml:space="preserve" font-family="AppleSymbols,Apple Symbols" font-size="16.0" fill="#FFFFFF" transform="matrix(1.00, 0.00, -0.00, -1.00, 0.2, 5.0)">⦿</text><text xml:space="preserve" font-family="IM_FELL_Great_Primer_Roman,IM FELL Great Primer" font-size="16.0" fill="#FFFFFF" transform="matrix(1.00, 0.00, -0.00, -1.00, 18.4, 5.2)">H</text><text xml:space="preserve" font-family="IM_FELL_Great_Primer_Roman,IM FELL Great Primer" font-size="16.0" fill="#FFFFFF" transform="matrix(1.00, 0.00, -0.00, -1.00, 32.3, 5.2)">a</text><text xml:space="preserve" font-family="IM_FELL_Great_Primer_Roman,IM FELL Great Primer" font-size="16.0" fill="#FFFFFF" transform="matrix(1.00, 0.00, -0.00, -1.00, 39.1, 5.2)">d</text><text xml:space="preserve" font-family="IM_FELL_Great_Primer_Roman,IM FELL Great Primer" font-size="16.0" fill="#FFFFFF" transform="matrix(1.00, 0.00, -0.00, -1.00, 47.1, 5.2)"> </text><text xml:space="preserve" font-family="IM_FELL_Great_Primer_Roman,IM FELL Great Primer" font-size="16.0" fill="#FFFFFF" transform="matrix(1.00, 0.00, -0.00, -1.00, 50.5, 5.2)">v</text><text xml:space="preserve" font-family="IM_FELL_Great_Primer_Roman,IM FELL Great Primer" font-size="16.0" fill="#FFFFFF" transform="matrix(1.00, 0.00, -0.00, -1.00, 58.2, 5.2)">a</text><text xml:space="preserve" font-family="IM_FELL_Great_Primer_Roman,IM FELL Great Primer" font-size="16.0" fill="#FFFFFF" transform="matrix(1.00, 0.00, -0.00, -1.00, 65.0, 5.2)">s</text><text xml:space="preserve" font-family="IM_FELL_Great_Primer_Roman,IM FELL Great Primer" font-size="16.0" fill="#FFFFFF" transform="matrix(1.00, 0.00, -0.00, -1.00, 70.8, 5.2)">t</text><text xml:space="preserve" font-family="IM_FELL_Great_Primer_Roman,IM FELL Great Primer" font-size="16.0" fill="#FFFFFF" transform="matrix(1.00, 0.00, -0.00, -1.00, 76.5, 5.2)"> </text><text xml:space="preserve" font-family="IM_FELL_Great_Primer_Roman,IM FELL Great Primer" font-size="16.0" fill="#FFFFFF" transform="matrix(1.00, 0.00, -0.00, -1.00, 79.9, 5.2)">i</text><text xml:space="preserve" font-family="IM_FELL_Great_Primer_Roman,IM FELL Great Primer" font-size="16.0" fill="#FFFFFF" transform="matrix(1.00, 0.00, -0.00, -1.00, 84.3, 5.2)">m</text><text xml:space="preserve" font-family="IM_FELL_Great_Primer_Roman,IM FELL Great Primer" font-size="16.0" fill="#FFFFFF" transform="matrix(1.00, 0.00, -0.00, -1.00, 97.8, 5.2)">p</text><text xml:space="preserve" font-family="IM_FELL_Great_Primer_Roman,IM FELL Great Primer" font-size="16.0" fill="#FFFFFF" transform="matrix(1.00, 0.00, -0.00, -1.00, 105.8, 5.2)">a</text><text xml:space="preserve" font-family="IM_FELL_Great_Primer_Roman,IM FELL Great Primer" font-size="16.0" fill="#FFFFFF" transform="matrix(1.00, 0.00, -0.00, -1.00, 112.5, 5.2)">c</text><text xml:space="preserve" font-family="IM_FELL_Great_Primer_Roman,IM FELL Great Primer" font-size="16.0" fill="#FFFFFF" transform="matrix(1.00, 0.00, -0.00, -1.00, 119.3, 5.2)">t</text><text xml:space="preserve" font-family="IM_FELL_Great_Primer_Roman,IM FELL Great Primer" font-size="16.0" fill="#FFFFFF" transform="matrix(1.00, 0.00, -0.00, -1.00, 124.9, 5.2)"> </text><text xml:space="preserve" font-family="IM_FELL_Great_Primer_Roman,IM FELL Great Primer" font-size="16.0" fill="#FFFFFF" transform="matrix(1.00, 0.00, -0.00, -1.00, 128.4, 5.2)">o</text><text xml:space="preserve" font-family="IM_FELL_Great_Primer_Roman,IM FELL Great Primer" font-size="16.0" fill="#FFFFFF" transform="matrix(1.00, 0.00, -0.00, -1.00, 136.6, 5.2)">n</text><text xml:space="preserve" font-family="IM_FELL_Great_Primer_Roman,IM FELL Great Primer" font-size="16.0" fill="#FFFFFF" transform="matrix(1.00, 0.00, -0.00, -1.00, 145.2, 5.2)"> </text><text xml:space="preserve" font-family="IM_FELL_Great_Primer_Roman,IM FELL Great Primer" font-size="16.0" fill="#FFFFFF" transform="matrix(1.00, 0.00, -0.00, -1.00, 148.7, 5.2)">s</text><text xml:space="preserve" font-family="IM_FELL_Great_Primer_Roman,IM FELL Great Primer" font-size="16.0" fill="#FFFFFF" transform="matrix(1.00, 0.00, -0.00, -1.00, 154.5, 5.2)">a</text><text xml:space="preserve" font-family="IM_FELL_Great_Primer_Roman,IM FELL Great Primer" font-size="16.0" fill="#FFFFFF" transform="matrix(1.00, 0.00, -0.00, -1.00, 161.3, 5.2)">f</text><text xml:space="preserve" font-family="IM_FELL_Great_Primer_Roman,IM FELL Great Primer" font-size="16.0" fill="#FFFFFF" transform="matrix(1.00, 0.00, -0.00, -1.00, 166.5, 5.2)">e</text><text xml:space="preserve" font-family="IM_FELL_Great_Primer_Roman,IM FELL Great Primer" font-size="16.0" fill="#FFFFFF" transform="matrix(1.00, 0.00, -0.00, -1.00, 173.2, 5.2)">t</text><text xml:space="preserve" font-family="IM_FELL_Great_Primer_Roman,IM FELL Great Primer" font-size="16.0" fill="#FFFFFF" transform="matrix(1.00, 0.00, -0.00, -1.00, 178.9, 5.2)">y</text><text xml:space="preserve" font-family="IM_FELL_Great_Primer_Roman,IM FELL Great Primer" font-size="16.0" fill="#FFFFFF" transform="matrix(1.00, 0.00, -0.00, -1.00, 186.4, 5.2)"> </text><text xml:space="preserve" font-family="IM_FELL_Great_Primer_Roman,IM FELL Great Primer" font-size="16.0" fill="#FFFFFF" transform="matrix(1.00, 0.00, -0.00, -1.00, 189.8, 5.2)">r</text><text xml:space="preserve" font-family="IM_FELL_Great_Primer_Roman,IM FELL Great Primer" font-size="16.0" fill="#FFFFFF" transform="matrix(1.00, 0.00, -0.00, -1.00, 195.7, 5.2)">e</text><text xml:space="preserve" font-family="IM_FELL_Great_Primer_Roman,IM FELL Great Primer" font-size="16.0" fill="#FFFFFF" transform="matrix(1.00, 0.00, -0.00, -1.00, 202.3, 5.2)">g</text><text xml:space="preserve" font-family="IM_FELL_Great_Primer_Roman,IM FELL Great Primer" font-size="16.0" fill="#FFFFFF" transform="matrix(1.00, 0.00, -0.00, -1.00, 210.0, 5.2)">u</text><text xml:space="preserve" font-family="IM_FELL_Great_Primer_Roman,IM FELL Great Primer" font-size="16.0" fill="#FFFFFF" transform="matrix(1.00, 0.00, -0.00, -1.00, 218.5, 5.2)">l</text><text xml:space="preserve" font-family="IM_FELL_Great_Primer_Roman,IM FELL Great Primer" font-size="16.0" fill="#FFFFFF" transform="matrix(1.00, 0.00, -0.00, -1.00, 222.8, 5.2)">a</text><text xml:space="preserve" font-family="IM_FELL_Great_Primer_Roman,IM FELL Great Primer" font-size="16.0" fill="#FFFFFF" transform="matrix(1.00, 0.00, -0.00, -1.00, 229.6, 5.2)">t</text><text xml:space="preserve" font-family="IM_FELL_Great_Primer_Roman,IM FELL Great Primer" font-size="16.0" fill="#FFFFFF" transform="matrix(1.00, 0.00, -0.00, -1.00, 235.3, 5.2)">i</text><text xml:space="preserve" font-family="IM_FELL_Great_Primer_Roman,IM FELL Great Primer" font-size="16.0" fill="#FFFFFF" transform="matrix(1.00, 0.00, -0.00, -1.00, 239.6, 5.2)">o</text><text xml:space="preserve" font-family="IM_FELL_Great_Primer_Roman,IM FELL Great Primer" font-size="16.0" fill="#FFFFFF" transform="matrix(1.00, 0.00, -0.00, -1.00, 247.7, 5.2)">n</text><text xml:space="preserve" font-family="IM_FELL_Great_Primer_Roman,IM FELL Great Primer" font-size="16.0" fill="#FFFFFF" transform="matrix(1.00, 0.00, -0.00, -1.00, 256.4, 5.2)">s</text><text xml:space="preserve" font-family="IM_FELL_Great_Primer_Roman,IM FELL Great Primer" font-size="16.0" fill="#FFFFFF" transform="matrix(1.00, 0.00, -0.00, -1.00, 262.2, 5.2)"> </text><text xml:space="preserve" font-family="IM_FELL_Great_Primer_Roman,IM FELL Great Primer" font-size="16.0" fill="#FFFFFF" transform="matrix(1.00, 0.00, -0.00, -1.00, 265.7, 5.2)">a</text><text xml:space="preserve" font-family="IM_FELL_Great_Primer_Roman,IM FELL Great Primer" font-size="16.0" fill="#FFFFFF" transform="matrix(1.00, 0.00, -0.00, -1.00, 272.4, 5.2)">n</text><text xml:space="preserve" font-family="IM_FELL_Great_Primer_Roman,IM FELL Great Primer" font-size="16.0" fill="#FFFFFF" transform="matrix(1.00, 0.00, -0.00, -1.00, 281.1, 5.2)">d</text><text xml:space="preserve" font-family="IM_FELL_Great_Primer_Roman,IM FELL Great Primer" font-size="16.0" fill="#FFFFFF" transform="matrix(1.00, 0.00, -0.00, -1.00, 289.1, 5.2)"> </text><text xml:space="preserve" font-family="IM_FELL_Great_Primer_Roman,IM FELL Great Primer" font-size="16.0" fill="#FFFFFF" transform="matrix(1.00, 0.00, -0.00, -1.00, 292.6, 5.2)">d</text><text xml:space="preserve" font-family="IM_FELL_Great_Primer_Roman,IM FELL Great Primer" font-size="16.0" fill="#FFFFFF" transform="matrix(1.00, 0.00, -0.00, -1.00, 300.6, 5.2)">i</text><text xml:space="preserve" font-family="IM_FELL_Great_Primer_Roman,IM FELL Great Primer" font-size="16.0" fill="#FFFFFF" transform="matrix(1.00, 0.00, -0.00, -1.00, 305.0, 5.2)">s</text><text xml:space="preserve" font-family="IM_FELL_Great_Primer_Roman,IM FELL Great Primer" font-size="16.0" fill="#FFFFFF" transform="matrix(1.00, 0.00, -0.00, -1.00, 310.8, 5.2)">a</text><text xml:space="preserve" font-family="IM_FELL_Great_Primer_Roman,IM FELL Great Primer" font-size="16.0" fill="#FFFFFF" transform="matrix(1.00, 0.00, -0.00, -1.00, 317.6, 5.2)">s</text><text xml:space="preserve" font-family="IM_FELL_Great_Primer_Roman,IM FELL Great Primer" font-size="16.0" fill="#FFFFFF" transform="matrix(1.00, 0.00, -0.00, -1.00, 323.4, 5.2)">t</text><text xml:space="preserve" font-family="IM_FELL_Great_Primer_Roman,IM FELL Great Primer" font-size="16.0" fill="#FFFFFF" transform="matrix(1.00, 0.00, -0.00, -1.00, 329.1, 5.2)">e</text><text xml:space="preserve" font-family="IM_FELL_Great_Primer_Roman,IM FELL Great Primer" font-size="16.0" fill="#FFFFFF" transform="matrix(1.00, 0.00, -0.00, -1.00, 335.8, 5.2)">r</text><text xml:space="preserve" font-family="IM_FELL_Great_Primer_Roman,IM FELL Great Primer" font-size="16.0" fill="#FFFFFF" transform="matrix(1.00, 0.00, -0.00, -1.00, 341.8, 5.2)"> </text><text xml:space="preserve" font-family="IM_FELL_Great_Primer_Roman,IM FELL Great Primer" font-size="16.0" fill="#FFFFFF" transform="matrix(1.00, 0.00, -0.00, -1.00, 345.2, 5.2)">p</text><text xml:space="preserve" font-family="IM_FELL_Great_Primer_Roman,IM FELL Great Primer" font-size="16.0" fill="#FFFFFF" transform="matrix(1.00, 0.00, -0.00, -1.00, 353.2, 5.2)">r</text><text xml:space="preserve" font-family="IM_FELL_Great_Primer_Roman,IM FELL Great Primer" font-size="16.0" fill="#FFFFFF" transform="matrix(1.00, 0.00, -0.00, -1.00, 359.0, 5.2)">e</text><text xml:space="preserve" font-family="IM_FELL_Great_Primer_Roman,IM FELL Great Primer" font-size="16.0" fill="#FFFFFF" transform="matrix(1.00, 0.00, -0.00, -1.00, 365.6, 5.2)">v</text><text xml:space="preserve" font-family="IM_FELL_Great_Primer_Roman,IM FELL Great Primer" font-size="16.0" fill="#FFFFFF" transform="matrix(1.00, 0.00, -0.00, -1.00, 373.1, 5.2)">e</text><text xml:space="preserve" font-family="IM_FELL_Great_Primer_Roman,IM FELL Great Primer" font-size="16.0" fill="#FFFFFF" transform="matrix(1.00, 0.00, -0.00, -1.00, 379.8, 5.2)">n</text><text xml:space="preserve" font-family="IM_FELL_Great_Primer_Roman,IM FELL Great Primer" font-size="16.0" fill="#FFFFFF" transform="matrix(1.00, 0.00, -0.00, -1.00, 388.4, 5.2)">t</text><text xml:space="preserve" font-family="IM_FELL_Great_Primer_Roman,IM FELL Great Primer" font-size="16.0" fill="#FFFFFF" transform="matrix(1.00, 0.00, -0.00, -1.00, 394.0, 5.2)">i</text><text xml:space="preserve" font-family="IM_FELL_Great_Primer_Roman,IM FELL Great Primer" font-size="16.0" fill="#FFFFFF" transform="matrix(1.00, 0.00, -0.00, -1.00, 398.3, 5.2)">o</text><text xml:space="preserve" font-family="IM_FELL_Great_Primer_Roman,IM FELL Great Primer" font-size="16.0" fill="#FFFFFF" transform="matrix(1.00, 0.00, -0.00, -1.00, 406.5, 5.2)">n</text><text xml:space="preserve" font-family="IM_FELL_Great_Primer_Roman,IM FELL Great Primer" font-size="16.0" fill="#FFFFFF" transform="matrix(1.00, 0.00, -0.00, -1.00, 415.2, 5.2)"> </text><text xml:space="preserve" font-family="IM_FELL_Great_Primer_Roman,IM FELL Great Primer" font-size="16.0" fill="#FFFFFF" transform="matrix(1.00, 0.00, -0.00, -1.00, 418.6, 5.2)">i</text><text xml:space="preserve" font-family="IM_FELL_Great_Primer_Roman,IM FELL Great Primer" font-size="16.0" fill="#FFFFFF" transform="matrix(1.00, 0.00, -0.00, -1.00, 423.0, 5.2)">n</text><text xml:space="preserve" font-family="IM_FELL_Great_Primer_Roman,IM FELL Great Primer" font-size="16.0" fill="#FFFFFF" transform="matrix(1.00, 0.00, -0.00, -1.00, 431.6, 5.2)">t</text><text xml:space="preserve" font-family="IM_FELL_Great_Primer_Roman,IM FELL Great Primer" font-size="16.0" fill="#FFFFFF" transform="matrix(1.00, 0.00, -0.00, -1.00, 437.3, 5.2)">e</text><text xml:space="preserve" font-family="IM_FELL_Great_Primer_Roman,IM FELL Great Primer" font-size="16.0" fill="#FFFFFF" transform="matrix(1.00, 0.00, -0.00, -1.00, 443.9, 5.2)">r</text><text xml:space="preserve" font-family="IM_FELL_Great_Primer_Roman,IM FELL Great Primer" font-size="16.0" fill="#FFFFFF" transform="matrix(1.00, 0.00, -0.00, -1.00, 449.9, 5.2)">n</text><text xml:space="preserve" font-family="IM_FELL_Great_Primer_Roman,IM FELL Great Primer" font-size="16.0" fill="#FFFFFF" transform="matrix(1.00, 0.00, -0.00, -1.00, 458.6, 5.2)">a</text><text xml:space="preserve" font-family="IM_FELL_Great_Primer_Roman,IM FELL Great Primer" font-size="16.0" fill="#FFFFFF" transform="matrix(1.00, 0.00, -0.00, -1.00, 465.4, 5.2)">t</text><text xml:space="preserve" font-family="IM_FELL_Great_Primer_Roman,IM FELL Great Primer" font-size="16.0" fill="#FFFFFF" transform="matrix(1.00, 0.00, -0.00, -1.00, 471.0, 5.2)">i</text><text xml:space="preserve" font-family="IM_FELL_Great_Primer_Roman,IM FELL Great Primer" font-size="16.0" fill="#FFFFFF" transform="matrix(1.00, 0.00, -0.00, -1.00, 475.3, 5.2)">o</text><text xml:space="preserve" font-family="IM_FELL_Great_Primer_Roman,IM FELL Great Primer" font-size="16.0" fill="#FFFFFF" transform="matrix(1.00, 0.00, -0.00, -1.00, 483.5, 5.2)">n</text><text xml:space="preserve" font-family="IM_FELL_Great_Primer_Roman,IM FELL Great Primer" font-size="16.0" fill="#FFFFFF" transform="matrix(1.00, 0.00, -0.00, -1.00, 492.2, 5.2)">a</text><text xml:space="preserve" font-family="IM_FELL_Great_Primer_Roman,IM FELL Great Primer" font-size="16.0" fill="#FFFFFF" transform="matrix(1.00, 0.00, -0.00, -1.00, 498.9, 5.2)">l</text><text xml:space="preserve" font-family="IM_FELL_Great_Primer_Roman,IM FELL Great Primer" font-size="16.0" fill="#FFFFFF" transform="matrix(1.00, 0.00, -0.00, -1.00, 503.3, 5.2)">l</text><text xml:space="preserve" font-family="IM_FELL_Great_Primer_Roman,IM FELL Great Primer" font-size="16.0" fill="#FFFFFF" transform="matrix(1.00, 0.00, -0.00, -1.00, 507.3, 5.2)">y</text><text xml:space="preserve" font-family="IM_FELL_Great_Primer_Roman,IM FELL Great Primer" font-size="16.0" fill="#FFFFFF" transform="matrix(1.00, 0.00, -0.00, -1.00, 514.8, 5.2)"> </text></g></svg>