<?xml version="1.0" encoding="UTF-8" standalone="no"?><svg xmlns="http://www.w3.org/2000/svg" xmlns:xlink="http://www.w3.org/1999/xlink" clip-rule="evenodd" stroke-miterlimit="10" viewBox="0 0 350 21"><desc>SVG generated by Keynote</desc><defs></defs><g transform="matrix(1.00, 0.00, -0.00, -1.00, 0.0, 21.0)"><text xml:space="preserve" font-family="LucidaGrande,Lucida Grande" font-size="16.0" fill="#FFFFFF" transform="matrix(1.00, 0.00, -0.00, -1.00, 0.2, 4.7)">â</text><text xml:space="preserve" font-family="IM_FELL_Great_Primer_Roman,IM FELL Great Primer" font-size="16.0" fill="#FFFFFF" transform="matrix(1.00, 0.00, -0.00, -1.00, 12.8, 5.2)">S</text><text xml:space="preserve" font-family="IM_FELL_Great_Primer_Roman,IM FELL Great Primer" font-size="16.0" fill="#FFFFFF" transform="matrix(1.00, 0.00, -0.00, -1.00, 22.0, 5.2)">h</text><text xml:space="preserve" font-family="IM_FELL_Great_Primer_Roman,IM FELL Great Primer" font-size="16.0" fill="#FFFFFF" transform="matrix(1.00, 0.00, -0.00, -1.00, 30.8, 5.2)">o</text><text xml:space="preserve" font-family="IM_FELL_Great_Primer_Roman,IM FELL Great Primer" font-size="16.0" fill="#FFFFFF" transform="matrix(1.00, 0.00, -0.00, -1.00, 39.0, 5.2)">u</text><text xml:space="preserve" font-family="IM_FELL_Great_Primer_Roman,IM FELL Great Primer" font-size="16.0" fill="#FFFFFF" transform="matrix(1.00, 0.00, -0.00, -1.00, 47.5, 5.2)">l</text><text xml:space="preserve" font-family="IM_FELL_Great_Primer_Roman,IM FELL Great Primer" font-size="16.0" fill="#FFFFFF" transform="matrix(1.00, 0.00, -0.00, -1.00, 51.8, 5.2)">d</text><text xml:space="preserve" font-family="IM_FELL_Great_Primer_Roman,IM FELL Great Primer" font-size="16.0" fill="#FFFFFF" transform="matrix(1.00, 0.00, -0.00, -1.00, 59.8, 5.2)"> </text><text xml:space="preserve" font-family="IM_FELL_Great_Primer_Roman,IM FELL Great Primer" font-size="16.0" fill="#FFFFFF" transform="matrix(1.00, 0.00, -0.00, -1.00, 63.3, 5.2)">t</text><text xml:space="preserve" font-family="IM_FELL_Great_Primer_Roman,IM FELL Great Primer" font-size="16.0" fill="#FFFFFF" transform="matrix(1.00, 0.00, -0.00, -1.00, 68.9, 5.2)">h</text><text xml:space="preserve" font-family="IM_FELL_Great_Primer_Roman,IM FELL Great Primer" font-size="16.0" fill="#FFFFFF" transform="matrix(1.00, 0.00, -0.00, -1.00, 77.8, 5.2)">e</text><text xml:space="preserve" font-family="IM_FELL_Great_Primer_Roman,IM FELL Great Primer" font-size="16.0" fill="#FFFFFF" transform="matrix(1.00, 0.00, -0.00, -1.00, 84.4, 5.2)"> </text><text xml:space="preserve" font-family="IM_FELL_Great_Primer_Roman,IM FELL Great Primer" font-size="16.0" fill="#FFFFFF" transform="matrix(1.00, 0.00, -0.00, -1.00, 87.9, 5.2)">H</text><text xml:space="preserve" font-family="IM_FELL_Great_Primer_Roman,IM FELL Great Primer" font-size="16.0" fill="#FFFFFF" transform="matrix(1.00, 0.00, -0.00, -1.00, 101.7, 5.2)">a</text><text xml:space="preserve" font-family="IM_FELL_Great_Primer_Roman,IM FELL Great Primer" font-size="16.0" fill="#FFFFFF" transform="matrix(1.00, 0.00, -0.00, -1.00, 108.5, 5.2)">l</text><text xml:space="preserve" font-family="IM_FELL_Great_Primer_Roman,IM FELL Great Primer" font-size="16.0" fill="#FFFFFF" transform="matrix(1.00, 0.00, -0.00, -1.00, 112.8, 5.2)">i</text><text xml:space="preserve" font-family="IM_FELL_Great_Primer_Roman,IM FELL Great Primer" font-size="16.0" fill="#FFFFFF" transform="matrix(1.00, 0.00, -0.00, -1.00, 117.2, 5.2)">f</text><text xml:space="preserve" font-family="IM_FELL_Great_Primer_Roman,IM FELL Great Primer" font-size="16.0" fill="#FFFFFF" transform="matrix(1.00, 0.00, -0.00, -1.00, 122.6, 5.2)">a</text><text xml:space="preserve" font-family="IM_FELL_Great_Primer_Roman,IM FELL Great Primer" font-size="16.0" fill="#FFFFFF" transform="matrix(1.00, 0.00, -0.00, -1.00, 129.4, 5.2)">x</text><text xml:space="preserve" font-family="IM_FELL_Great_Primer_Roman,IM FELL Great Primer" font-size="16.0" fill="#FFFFFF" transform="matrix(1.00, 0.00, -0.00, -1.00, 136.5, 5.2)"> </text><text xml:space="preserve" font-family="IM_FELL_Great_Primer_Roman,IM FELL Great Primer" font-size="16.0" fill="#FFFFFF" transform="matrix(1.00, 0.00, -0.00, -1.00, 140.0, 5.2)">E</text><text xml:space="preserve" font-family="IM_FELL_Great_Primer_Roman,IM FELL Great Primer" font-size="16.0" fill="#FFFFFF" transform="matrix(1.00, 0.00, -0.00, -1.00, 151.4, 5.2)">x</text><text xml:space="preserve" font-family="IM_FELL_Great_Primer_Roman,IM FELL Great Primer" font-size="16.0" fill="#FFFFFF" transform="matrix(1.00, 0.00, -0.00, -1.00, 158.5, 5.2)">p</text><text xml:space="preserve" font-family="IM_FELL_Great_Primer_Roman,IM FELL Great Primer" font-size="16.0" fill="#FFFFFF" transform="matrix(1.00, 0.00, -0.00, -1.00, 166.5, 5.2)">l</text><text xml:space="preserve" font-family="IM_FELL_Great_Primer_Roman,IM FELL Great Primer" font-size="16.0" fill="#FFFFFF" transform="matrix(1.00, 0.00, -0.00, -1.00, 170.7, 5.2)">o</text><text xml:space="preserve" font-family="IM_FELL_Great_Primer_Roman,IM FELL Great Primer" font-size="16.0" fill="#FFFFFF" transform="matrix(1.00, 0.00, -0.00, -1.00, 178.9, 5.2)">s</text><text xml:space="preserve" font-family="IM_FELL_Great_Primer_Roman,IM FELL Great Primer" font-size="16.0" fill="#FFFFFF" transform="matrix(1.00, 0.00, -0.00, -1.00, 184.7, 5.2)">i</text><text xml:space="preserve" font-family="IM_FELL_Great_Primer_Roman,IM FELL Great Primer" font-size="16.0" fill="#FFFFFF" transform="matrix(1.00, 0.00, -0.00, -1.00, 189.0, 5.2)">o</text><text xml:space="preserve" font-family="IM_FELL_Great_Primer_Roman,IM FELL Great Primer" font-size="16.0" fill="#FFFFFF" transform="matrix(1.00, 0.00, -0.00, -1.00, 197.2, 5.2)">n</text><text xml:space="preserve" font-family="IM_FELL_Great_Primer_Roman,IM FELL Great Primer" font-size="16.0" fill="#FFFFFF" transform="matrix(1.00, 0.00, -0.00, -1.00, 205.9, 5.2)"> </text><text xml:space="preserve" font-family="IM_FELL_Great_Primer_Roman,IM FELL Great Primer" font-size="16.0" fill="#FFFFFF" transform="matrix(1.00, 0.00, -0.00, -1.00, 209.3, 5.2)">b</text><text xml:space="preserve" font-family="IM_FELL_Great_Primer_Roman,IM FELL Great Primer" font-size="16.0" fill="#FFFFFF" transform="matrix(1.00, 0.00, -0.00, -1.00, 217.1, 5.2)">e</text><text xml:space="preserve" font-family="IM_FELL_Great_Primer_Roman,IM FELL Great Primer" font-size="16.0" fill="#FFFFFF" transform="matrix(1.00, 0.00, -0.00, -1.00, 223.8, 5.2)"> </text><text xml:space="preserve" font-family="IM_FELL_Great_Primer_Roman,IM FELL Great Primer" font-size="16.0" fill="#FFFFFF" transform="matrix(1.00, 0.00, -0.00, -1.00, 227.2, 5.2)">a</text><text xml:space="preserve" font-family="IM_FELL_Great_Primer_Roman,IM FELL Great Primer" font-size="16.0" fill="#FFFFFF" transform="matrix(1.00, 0.00, -0.00, -1.00, 234.0, 5.2)"> </text><text xml:space="preserve" font-family="IM_FELL_Great_Primer_Roman,IM FELL Great Primer" font-size="16.0" fill="#FFFFFF" transform="matrix(1.00, 0.00, -0.00, -1.00, 237.4, 5.2)">s</text><text xml:space="preserve" font-family="IM_FELL_Great_Primer_Roman,IM FELL Great Primer" font-size="16.0" fill="#FFFFFF" transform="matrix(1.00, 0.00, -0.00, -1.00, 243.3, 5.2)">i</text><text xml:space="preserve" font-family="IM_FELL_Great_Primer_Roman,IM FELL Great Primer" font-size="16.0" fill="#FFFFFF" transform="matrix(1.00, 0.00, -0.00, -1.00, 247.7, 5.2)">g</text><text xml:space="preserve" font-family="IM_FELL_Great_Primer_Roman,IM FELL Great Primer" font-size="16.0" fill="#FFFFFF" transform="matrix(1.00, 0.00, -0.00, -1.00, 255.1, 5.2)">n</text><text xml:space="preserve" font-family="IM_FELL_Great_Primer_Roman,IM FELL Great Primer" font-size="16.0" fill="#FFFFFF" transform="matrix(1.00, 0.00, -0.00, -1.00, 263.8, 5.2)">i</text><text xml:space="preserve" font-family="IM_FELL_Great_Primer_Roman,IM FELL Great Primer" font-size="16.0" fill="#FFFFFF" transform="matrix(1.00, 0.00, -0.00, -1.00, 268.2, 5.2)">f</text><text xml:space="preserve" font-family="IM_FELL_Great_Primer_Roman,IM FELL Great Primer" font-size="16.0" fill="#FFFFFF" transform="matrix(1.00, 0.00, -0.00, -1.00, 273.6, 5.2)">i</text><text xml:space="preserve" font-family="IM_FELL_Great_Primer_Roman,IM FELL Great Primer" font-size="16.0" fill="#FFFFFF" transform="matrix(1.00, 0.00, -0.00, -1.00, 277.9, 5.2)">c</text><text xml:space="preserve" font-family="IM_FELL_Great_Primer_Roman,IM FELL Great Primer" font-size="16.0" fill="#FFFFFF" transform="matrix(1.00, 0.00, -0.00, -1.00, 284.7, 5.2)">a</text><text xml:space="preserve" font-family="IM_FELL_Great_Primer_Roman,IM FELL Great Primer" font-size="16.0" fill="#FFFFFF" transform="matrix(1.00, 0.00, -0.00, -1.00, 291.4, 5.2)">n</text><text xml:space="preserve" font-family="IM_FELL_Great_Primer_Roman,IM FELL Great Primer" font-size="16.0" fill="#FFFFFF" transform="matrix(1.00, 0.00, -0.00, -1.00, 300.0, 5.2)">t</text><text xml:space="preserve" font-family="IM_FELL_Great_Primer_Roman,IM FELL Great Primer" font-size="16.0" fill="#FFFFFF" transform="matrix(1.00, 0.00, -0.00, -1.00, 305.7, 5.2)"> </text><text xml:space="preserve" font-family="IM_FELL_Great_Primer_Roman,IM FELL Great Primer" font-size="16.0" fill="#FFFFFF" transform="matrix(1.00, 0.00, -0.00, -1.00, 309.1, 5.2)">e</text><text xml:space="preserve" font-family="IM_FELL_Great_Primer_Roman,IM FELL Great Primer" font-size="16.0" fill="#FFFFFF" transform="matrix(1.00, 0.00, -0.00, -1.00, 315.7, 5.2)">v</text><text xml:space="preserve" font-family="IM_FELL_Great_Primer_Roman,IM FELL Great Primer" font-size="16.0" fill="#FFFFFF" transform="matrix(1.00, 0.00, -0.00, -1.00, 323.2, 5.2)">e</text><text xml:space="preserve" font-family="IM_FELL_Great_Primer_Roman,IM FELL Great Primer" font-size="16.0" fill="#FFFFFF" transform="matrix(1.00, 0.00, -0.00, -1.00, 329.9, 5.2)">n</text><text xml:space="preserve" font-family="IM_FELL_Great_Primer_Roman,IM FELL Great Primer" font-size="16.0" fill="#FFFFFF" transform="matrix(1.00, 0.00, -0.00, -1.00, 338.4, 5.2)">t</text><text xml:space="preserve" font-family="IM_FELL_Great_Primer_Roman,IM FELL Great Primer" font-size="16.0" fill="#FFFFFF" transform="matrix(1.00, 0.00, -0.00, -1.00, 344.1, 5.2)">?</text></g></svg>