<?xml version="1.0" encoding="UTF-8" standalone="no"?><svg xmlns="http://www.w3.org/2000/svg" xmlns:xlink="http://www.w3.org/1999/xlink" clip-rule="evenodd" stroke-miterlimit="10" viewBox="0 0 281 17"><desc>SVG generated by Keynote</desc><defs></defs><g transform="matrix(1.00, 0.00, -0.00, -1.00, 0.0, 17.0)"><text xml:space="preserve" font-family="IM_FELL_Great_Primer_Italic,IM FELL Great Primer" font-style="italic" font-size="12.0" fill="#FFFFFF" transform="matrix(1.00, 0.00, -0.00, -1.00, 2.8, 6.0)">S</text><text xml:space="preserve" font-family="IM_FELL_Great_Primer_Italic,IM FELL Great Primer" font-style="italic" font-size="12.0" fill="#FFFFFF" transform="matrix(1.00, 0.00, -0.00, -1.00, 9.3, 6.0)">o</text><text xml:space="preserve" font-family="IM_FELL_Great_Primer_Italic,IM FELL Great Primer" font-style="italic" font-size="12.0" fill="#FFFFFF" transform="matrix(1.00, 0.00, -0.00, -1.00, 13.9, 6.0)">l</text><text xml:space="preserve" font-family="IM_FELL_Great_Primer_Italic,IM FELL Great Primer" font-style="italic" font-size="12.0" fill="#FFFFFF" transform="matrix(1.00, 0.00, -0.00, -1.00, 17.1, 6.0)">d</text><text xml:space="preserve" font-family="IM_FELL_Great_Primer_Italic,IM FELL Great Primer" font-style="italic" font-size="12.0" fill="#FFFFFF" transform="matrix(1.00, 0.00, -0.00, -1.00, 23.3, 6.0)">i</text><text xml:space="preserve" font-family="IM_FELL_Great_Primer_Italic,IM FELL Great Primer" font-style="italic" font-size="12.0" fill="#FFFFFF" transform="matrix(1.00, 0.00, -0.00, -1.00, 26.8, 6.0)">e</text><text xml:space="preserve" font-family="IM_FELL_Great_Primer_Italic,IM FELL Great Primer" font-style="italic" font-size="12.0" fill="#FFFFFF" transform="matrix(1.00, 0.00, -0.00, -1.00, 31.3, 6.0)">r</text><text xml:space="preserve" font-family="IM_FELL_Great_Primer_Italic,IM FELL Great Primer" font-style="italic" font-size="12.0" fill="#FFFFFF" transform="matrix(1.00, 0.00, -0.00, -1.00, 36.3, 6.0)">s</text><text xml:space="preserve" font-family="IM_FELL_Great_Primer_Italic,IM FELL Great Primer" font-style="italic" font-size="12.0" fill="#FFFFFF" transform="matrix(1.00, 0.00, -0.00, -1.00, 39.8, 6.0)"> </text><text xml:space="preserve" font-family="IM_FELL_Great_Primer_Italic,IM FELL Great Primer" font-style="italic" font-size="12.0" fill="#FFFFFF" transform="matrix(1.00, 0.00, -0.00, -1.00, 42.4, 6.0)">e</text><text xml:space="preserve" font-family="IM_FELL_Great_Primer_Italic,IM FELL Great Primer" font-style="italic" font-size="12.0" fill="#FFFFFF" transform="matrix(1.00, 0.00, -0.00, -1.00, 46.8, 6.0)">n</text><text xml:space="preserve" font-family="IM_FELL_Great_Primer_Italic,IM FELL Great Primer" font-style="italic" font-size="12.0" fill="#FFFFFF" transform="matrix(1.00, 0.00, -0.00, -1.00, 53.1, 6.0)">g</text><text xml:space="preserve" font-family="IM_FELL_Great_Primer_Italic,IM FELL Great Primer" font-style="italic" font-size="12.0" fill="#FFFFFF" transform="matrix(1.00, 0.00, -0.00, -1.00, 57.6, 6.0)">a</text><text xml:space="preserve" font-family="IM_FELL_Great_Primer_Italic,IM FELL Great Primer" font-style="italic" font-size="12.0" fill="#FFFFFF" transform="matrix(1.00, 0.00, -0.00, -1.00, 63.3, 6.0)">g</text><text xml:space="preserve" font-family="IM_FELL_Great_Primer_Italic,IM FELL Great Primer" font-style="italic" font-size="12.0" fill="#FFFFFF" transform="matrix(1.00, 0.00, -0.00, -1.00, 67.8, 6.0)">e</text><text xml:space="preserve" font-family="IM_FELL_Great_Primer_Italic,IM FELL Great Primer" font-style="italic" font-size="12.0" fill="#FFFFFF" transform="matrix(1.00, 0.00, -0.00, -1.00, 72.3, 6.0)">d</text><text xml:space="preserve" font-family="IM_FELL_Great_Primer_Italic,IM FELL Great Primer" font-style="italic" font-size="12.0" fill="#FFFFFF" transform="matrix(1.00, 0.00, -0.00, -1.00, 78.5, 6.0)"> </text><text xml:space="preserve" font-family="IM_FELL_Great_Primer_Italic,IM FELL Great Primer" font-style="italic" font-size="12.0" fill="#FFFFFF" transform="matrix(1.00, 0.00, -0.00, -1.00, 81.1, 6.0)">i</text><text xml:space="preserve" font-family="IM_FELL_Great_Primer_Italic,IM FELL Great Primer" font-style="italic" font-size="12.0" fill="#FFFFFF" transform="matrix(1.00, 0.00, -0.00, -1.00, 84.7, 6.0)">n</text><text xml:space="preserve" font-family="IM_FELL_Great_Primer_Italic,IM FELL Great Primer" font-style="italic" font-size="12.0" fill="#FFFFFF" transform="matrix(1.00, 0.00, -0.00, -1.00, 90.9, 6.0)"> </text><text xml:space="preserve" font-family="IM_FELL_Great_Primer_Italic,IM FELL Great Primer" font-style="italic" font-size="12.0" fill="#FFFFFF" transform="matrix(1.00, 0.00, -0.00, -1.00, 93.5, 6.0)">r</text><text xml:space="preserve" font-family="IM_FELL_Great_Primer_Italic,IM FELL Great Primer" font-style="italic" font-size="12.0" fill="#FFFFFF" transform="matrix(1.00, 0.00, -0.00, -1.00, 98.6, 6.0)">e</text><text xml:space="preserve" font-family="IM_FELL_Great_Primer_Italic,IM FELL Great Primer" font-style="italic" font-size="12.0" fill="#FFFFFF" transform="matrix(1.00, 0.00, -0.00, -1.00, 103.0, 6.0)">s</text><text xml:space="preserve" font-family="IM_FELL_Great_Primer_Italic,IM FELL Great Primer" font-style="italic" font-size="12.0" fill="#FFFFFF" transform="matrix(1.00, 0.00, -0.00, -1.00, 106.5, 6.0)">c</text><text xml:space="preserve" font-family="IM_FELL_Great_Primer_Italic,IM FELL Great Primer" font-style="italic" font-size="12.0" fill="#FFFFFF" transform="matrix(1.00, 0.00, -0.00, -1.00, 110.9, 6.0)">u</text><text xml:space="preserve" font-family="IM_FELL_Great_Primer_Italic,IM FELL Great Primer" font-style="italic" font-size="12.0" fill="#FFFFFF" transform="matrix(1.00, 0.00, -0.00, -1.00, 117.1, 6.0)">e</text><text xml:space="preserve" font-family="IM_FELL_Great_Primer_Italic,IM FELL Great Primer" font-style="italic" font-size="12.0" fill="#FFFFFF" transform="matrix(1.00, 0.00, -0.00, -1.00, 121.6, 6.0)"> </text><text xml:space="preserve" font-family="IM_FELL_Great_Primer_Italic,IM FELL Great Primer" font-style="italic" font-size="12.0" fill="#FFFFFF" transform="matrix(1.00, 0.00, -0.00, -1.00, 124.2, 6.0)">w</text><text xml:space="preserve" font-family="IM_FELL_Great_Primer_Italic,IM FELL Great Primer" font-style="italic" font-size="12.0" fill="#FFFFFF" transform="matrix(1.00, 0.00, -0.00, -1.00, 133.5, 6.0)">o</text><text xml:space="preserve" font-family="IM_FELL_Great_Primer_Italic,IM FELL Great Primer" font-style="italic" font-size="12.0" fill="#FFFFFF" transform="matrix(1.00, 0.00, -0.00, -1.00, 138.1, 6.0)">r</text><text xml:space="preserve" font-family="IM_FELL_Great_Primer_Italic,IM FELL Great Primer" font-style="italic" font-size="12.0" fill="#FFFFFF" transform="matrix(1.00, 0.00, -0.00, -1.00, 143.1, 6.0)">k</text><text xml:space="preserve" font-family="IM_FELL_Great_Primer_Italic,IM FELL Great Primer" font-style="italic" font-size="12.0" fill="#FFFFFF" transform="matrix(1.00, 0.00, -0.00, -1.00, 148.5, 6.0)"> </text><text xml:space="preserve" font-family="IM_FELL_Great_Primer_Italic,IM FELL Great Primer" font-style="italic" font-size="12.0" fill="#FFFFFF" transform="matrix(1.00, 0.00, -0.00, -1.00, 151.1, 6.0)">a</text><text xml:space="preserve" font-family="IM_FELL_Great_Primer_Italic,IM FELL Great Primer" font-style="italic" font-size="12.0" fill="#FFFFFF" transform="matrix(1.00, 0.00, -0.00, -1.00, 156.8, 6.0)">f</text><text xml:space="preserve" font-family="IM_FELL_Great_Primer_Italic,IM FELL Great Primer" font-style="italic" font-size="12.0" fill="#FFFFFF" transform="matrix(1.00, 0.00, -0.00, -1.00, 160.7, 6.0)">t</text><text xml:space="preserve" font-family="IM_FELL_Great_Primer_Italic,IM FELL Great Primer" font-style="italic" font-size="12.0" fill="#FFFFFF" transform="matrix(1.00, 0.00, -0.00, -1.00, 164.5, 6.0)">e</text><text xml:space="preserve" font-family="IM_FELL_Great_Primer_Italic,IM FELL Great Primer" font-style="italic" font-size="12.0" fill="#FFFFFF" transform="matrix(1.00, 0.00, -0.00, -1.00, 168.9, 6.0)">r</text><text xml:space="preserve" font-family="IM_FELL_Great_Primer_Italic,IM FELL Great Primer" font-style="italic" font-size="12.0" fill="#FFFFFF" transform="matrix(1.00, 0.00, -0.00, -1.00, 173.9, 6.0)"> </text><text xml:space="preserve" font-family="IM_FELL_Great_Primer_Italic,IM FELL Great Primer" font-style="italic" font-size="12.0" fill="#FFFFFF" transform="matrix(1.00, 0.00, -0.00, -1.00, 176.5, 6.0)">t</text><text xml:space="preserve" font-family="IM_FELL_Great_Primer_Italic,IM FELL Great Primer" font-style="italic" font-size="12.0" fill="#FFFFFF" transform="matrix(1.00, 0.00, -0.00, -1.00, 180.2, 6.0)">h</text><text xml:space="preserve" font-family="IM_FELL_Great_Primer_Italic,IM FELL Great Primer" font-style="italic" font-size="12.0" fill="#FFFFFF" transform="matrix(1.00, 0.00, -0.00, -1.00, 186.1, 6.0)">e</text><text xml:space="preserve" font-family="IM_FELL_Great_Primer_Italic,IM FELL Great Primer" font-style="italic" font-size="12.0" fill="#FFFFFF" transform="matrix(1.00, 0.00, -0.00, -1.00, 190.5, 6.0)"> </text><text xml:space="preserve" font-family="IM_FELL_Great_Primer_Italic,IM FELL Great Primer" font-style="italic" font-size="12.0" fill="#FFFFFF" transform="matrix(1.00, 0.00, -0.00, -1.00, 193.2, 6.0)">H</text><text xml:space="preserve" font-family="IM_FELL_Great_Primer_Italic,IM FELL Great Primer" font-style="italic" font-size="12.0" fill="#FFFFFF" transform="matrix(1.00, 0.00, -0.00, -1.00, 203.6, 6.0)">a</text><text xml:space="preserve" font-family="IM_FELL_Great_Primer_Italic,IM FELL Great Primer" font-style="italic" font-size="12.0" fill="#FFFFFF" transform="matrix(1.00, 0.00, -0.00, -1.00, 209.3, 6.0)">l</text><text xml:space="preserve" font-family="IM_FELL_Great_Primer_Italic,IM FELL Great Primer" font-style="italic" font-size="12.0" fill="#FFFFFF" transform="matrix(1.00, 0.00, -0.00, -1.00, 212.5, 6.0)">i</text><text xml:space="preserve" font-family="IM_FELL_Great_Primer_Italic,IM FELL Great Primer" font-style="italic" font-size="12.0" fill="#FFFFFF" transform="matrix(1.00, 0.00, -0.00, -1.00, 216.0, 6.0)">f</text><text xml:space="preserve" font-family="IM_FELL_Great_Primer_Italic,IM FELL Great Primer" font-style="italic" font-size="12.0" fill="#FFFFFF" transform="matrix(1.00, 0.00, -0.00, -1.00, 219.6, 6.0)">a</text><text xml:space="preserve" font-family="IM_FELL_Great_Primer_Italic,IM FELL Great Primer" font-style="italic" font-size="12.0" fill="#FFFFFF" transform="matrix(1.00, 0.00, -0.00, -1.00, 225.3, 6.0)">x</text><text xml:space="preserve" font-family="IM_FELL_Great_Primer_Italic,IM FELL Great Primer" font-style="italic" font-size="12.0" fill="#FFFFFF" transform="matrix(1.00, 0.00, -0.00, -1.00, 231.2, 6.0)"> </text><text xml:space="preserve" font-family="IM_FELL_Great_Primer_Italic,IM FELL Great Primer" font-style="italic" font-size="12.0" fill="#FFFFFF" transform="matrix(1.00, 0.00, -0.00, -1.00, 233.8, 6.0)">E</text><text xml:space="preserve" font-family="IM_FELL_Great_Primer_Italic,IM FELL Great Primer" font-style="italic" font-size="12.0" fill="#FFFFFF" transform="matrix(1.00, 0.00, -0.00, -1.00, 242.4, 6.0)">x</text><text xml:space="preserve" font-family="IM_FELL_Great_Primer_Italic,IM FELL Great Primer" font-style="italic" font-size="12.0" fill="#FFFFFF" transform="matrix(1.00, 0.00, -0.00, -1.00, 248.3, 6.0)">p</text><text xml:space="preserve" font-family="IM_FELL_Great_Primer_Italic,IM FELL Great Primer" font-style="italic" font-size="12.0" fill="#FFFFFF" transform="matrix(1.00, 0.00, -0.00, -1.00, 253.7, 6.0)">l</text><text xml:space="preserve" font-family="IM_FELL_Great_Primer_Italic,IM FELL Great Primer" font-style="italic" font-size="12.0" fill="#FFFFFF" transform="matrix(1.00, 0.00, -0.00, -1.00, 256.9, 6.0)">o</text><text xml:space="preserve" font-family="IM_FELL_Great_Primer_Italic,IM FELL Great Primer" font-style="italic" font-size="12.0" fill="#FFFFFF" transform="matrix(1.00, 0.00, -0.00, -1.00, 261.4, 6.0)">s</text><text xml:space="preserve" font-family="IM_FELL_Great_Primer_Italic,IM FELL Great Primer" font-style="italic" font-size="12.0" fill="#FFFFFF" transform="matrix(1.00, 0.00, -0.00, -1.00, 264.9, 6.0)">i</text><text xml:space="preserve" font-family="IM_FELL_Great_Primer_Italic,IM FELL Great Primer" font-style="italic" font-size="12.0" fill="#FFFFFF" transform="matrix(1.00, 0.00, -0.00, -1.00, 268.4, 6.0)">o</text><text xml:space="preserve" font-family="IM_FELL_Great_Primer_Italic,IM FELL Great Primer" font-style="italic" font-size="12.0" fill="#FFFFFF" transform="matrix(1.00, 0.00, -0.00, -1.00, 272.9, 6.0)">n</text></g></svg>