<?xml version="1.0" encoding="UTF-8" standalone="no"?><svg xmlns="http://www.w3.org/2000/svg" xmlns:xlink="http://www.w3.org/1999/xlink" clip-rule="evenodd" stroke-miterlimit="10" viewBox="0 0 281 19"><desc>SVG generated by Keynote</desc><defs></defs><g transform="matrix(1.00, 0.00, -0.00, -1.00, 0.0, 19.0)"><text xml:space="preserve" font-family="IM_FELL_Great_Primer_Roman,IM FELL Great Primer" font-size="16.0" fill="#FFFFFF" transform="matrix(1.00, 0.00, -0.00, -1.00, 1.4, 5.9)">G</text><text xml:space="preserve" font-family="IM_FELL_Great_Primer_Roman,IM FELL Great Primer" font-size="16.0" fill="#FFFFFF" transform="matrix(1.00, 0.00, -0.00, -1.00, 13.1, 5.9)">e</text><text xml:space="preserve" font-family="IM_FELL_Great_Primer_Roman,IM FELL Great Primer" font-size="16.0" fill="#FFFFFF" transform="matrix(1.00, 0.00, -0.00, -1.00, 19.8, 5.9)">r</text><text xml:space="preserve" font-family="IM_FELL_Great_Primer_Roman,IM FELL Great Primer" font-size="16.0" fill="#FFFFFF" transform="matrix(1.00, 0.00, -0.00, -1.00, 25.8, 5.9)">m</text><text xml:space="preserve" font-family="IM_FELL_Great_Primer_Roman,IM FELL Great Primer" font-size="16.0" fill="#FFFFFF" transform="matrix(1.00, 0.00, -0.00, -1.00, 39.2, 5.9)">a</text><text xml:space="preserve" font-family="IM_FELL_Great_Primer_Roman,IM FELL Great Primer" font-size="16.0" fill="#FFFFFF" transform="matrix(1.00, 0.00, -0.00, -1.00, 46.0, 5.9)">n</text><text xml:space="preserve" font-family="IM_FELL_Great_Primer_Roman,IM FELL Great Primer" font-size="16.0" fill="#FFFFFF" transform="matrix(1.00, 0.00, -0.00, -1.00, 54.4, 5.9)">y</text><text xml:space="preserve" font-family="IM_FELL_Great_Primer_Roman,IM FELL Great Primer" font-size="16.0" fill="#FFFFFF" transform="matrix(1.00, 0.00, -0.00, -1.00, 61.4, 5.9)">,</text><text xml:space="preserve" font-family="IM_FELL_Great_Primer_Roman,IM FELL Great Primer" font-size="16.0" fill="#FFFFFF" transform="matrix(1.00, 0.00, -0.00, -1.00, 65.5, 5.9)"> </text><text xml:space="preserve" font-family="IM_FELL_Great_Primer_Roman,IM FELL Great Primer" font-size="16.0" fill="#FFFFFF" transform="matrix(1.00, 0.00, -0.00, -1.00, 69.0, 5.9)">p</text><text xml:space="preserve" font-family="IM_FELL_Great_Primer_Roman,IM FELL Great Primer" font-size="16.0" fill="#FFFFFF" transform="matrix(1.00, 0.00, -0.00, -1.00, 77.0, 5.9)">u</text><text xml:space="preserve" font-family="IM_FELL_Great_Primer_Roman,IM FELL Great Primer" font-size="16.0" fill="#FFFFFF" transform="matrix(1.00, 0.00, -0.00, -1.00, 85.5, 5.9)">t</text><text xml:space="preserve" font-family="IM_FELL_Great_Primer_Roman,IM FELL Great Primer" font-size="16.0" fill="#FFFFFF" transform="matrix(1.00, 0.00, -0.00, -1.00, 91.2, 5.9)"> </text><text xml:space="preserve" font-family="IM_FELL_Great_Primer_Roman,IM FELL Great Primer" font-size="16.0" fill="#FFFFFF" transform="matrix(1.00, 0.00, -0.00, -1.00, 94.6, 5.9)">t</text><text xml:space="preserve" font-family="IM_FELL_Great_Primer_Roman,IM FELL Great Primer" font-size="16.0" fill="#FFFFFF" transform="matrix(1.00, 0.00, -0.00, -1.00, 100.3, 5.9)">h</text><text xml:space="preserve" font-family="IM_FELL_Great_Primer_Roman,IM FELL Great Primer" font-size="16.0" fill="#FFFFFF" transform="matrix(1.00, 0.00, -0.00, -1.00, 109.1, 5.9)">e</text><text xml:space="preserve" font-family="IM_FELL_Great_Primer_Roman,IM FELL Great Primer" font-size="16.0" fill="#FFFFFF" transform="matrix(1.00, 0.00, -0.00, -1.00, 115.8, 5.9)"> </text><text xml:space="preserve" font-family="IM_FELL_Great_Primer_Roman,IM FELL Great Primer" font-size="16.0" fill="#FFFFFF" transform="matrix(1.00, 0.00, -0.00, -1.00, 119.2, 5.9)">e</text><text xml:space="preserve" font-family="IM_FELL_Great_Primer_Roman,IM FELL Great Primer" font-size="16.0" fill="#FFFFFF" transform="matrix(1.00, 0.00, -0.00, -1.00, 125.8, 5.9)">v</text><text xml:space="preserve" font-family="IM_FELL_Great_Primer_Roman,IM FELL Great Primer" font-size="16.0" fill="#FFFFFF" transform="matrix(1.00, 0.00, -0.00, -1.00, 133.3, 5.9)">e</text><text xml:space="preserve" font-family="IM_FELL_Great_Primer_Roman,IM FELL Great Primer" font-size="16.0" fill="#FFFFFF" transform="matrix(1.00, 0.00, -0.00, -1.00, 140.0, 5.9)">n</text><text xml:space="preserve" font-family="IM_FELL_Great_Primer_Roman,IM FELL Great Primer" font-size="16.0" fill="#FFFFFF" transform="matrix(1.00, 0.00, -0.00, -1.00, 148.5, 5.9)">t</text><text xml:space="preserve" font-family="IM_FELL_Great_Primer_Roman,IM FELL Great Primer" font-size="16.0" fill="#FFFFFF" transform="matrix(1.00, 0.00, -0.00, -1.00, 154.2, 5.9)"> </text><text xml:space="preserve" font-family="IM_FELL_Great_Primer_Roman,IM FELL Great Primer" font-size="16.0" fill="#FFFFFF" transform="matrix(1.00, 0.00, -0.00, -1.00, 157.7, 5.9)">o</text><text xml:space="preserve" font-family="IM_FELL_Great_Primer_Roman,IM FELL Great Primer" font-size="16.0" fill="#FFFFFF" transform="matrix(1.00, 0.00, -0.00, -1.00, 165.8, 5.9)">n</text><text xml:space="preserve" font-family="IM_FELL_Great_Primer_Roman,IM FELL Great Primer" font-size="16.0" fill="#FFFFFF" transform="matrix(1.00, 0.00, -0.00, -1.00, 174.5, 5.9)"> </text><text xml:space="preserve" font-family="IM_FELL_Great_Primer_Roman,IM FELL Great Primer" font-size="16.0" fill="#FFFFFF" transform="matrix(1.00, 0.00, -0.00, -1.00, 177.9, 5.9)">t</text><text xml:space="preserve" font-family="IM_FELL_Great_Primer_Roman,IM FELL Great Primer" font-size="16.0" fill="#FFFFFF" transform="matrix(1.00, 0.00, -0.00, -1.00, 183.6, 5.9)">h</text><text xml:space="preserve" font-family="IM_FELL_Great_Primer_Roman,IM FELL Great Primer" font-size="16.0" fill="#FFFFFF" transform="matrix(1.00, 0.00, -0.00, -1.00, 192.4, 5.9)">e</text><text xml:space="preserve" font-family="IM_FELL_Great_Primer_Roman,IM FELL Great Primer" font-size="16.0" fill="#FFFFFF" transform="matrix(1.00, 0.00, -0.00, -1.00, 199.1, 5.9)">i</text><text xml:space="preserve" font-family="IM_FELL_Great_Primer_Roman,IM FELL Great Primer" font-size="16.0" fill="#FFFFFF" transform="matrix(1.00, 0.00, -0.00, -1.00, 203.5, 5.9)">r</text><text xml:space="preserve" font-family="IM_FELL_Great_Primer_Roman,IM FELL Great Primer" font-size="16.0" fill="#FFFFFF" transform="matrix(1.00, 0.00, -0.00, -1.00, 209.5, 5.9)"> </text><text xml:space="preserve" font-family="IM_FELL_Great_Primer_Roman,IM FELL Great Primer" font-size="16.0" fill="#FFFFFF" transform="matrix(1.00, 0.00, -0.00, -1.00, 212.9, 5.9)">f</text><text xml:space="preserve" font-family="IM_FELL_Great_Primer_Roman,IM FELL Great Primer" font-size="16.0" fill="#FFFFFF" transform="matrix(1.00, 0.00, -0.00, -1.00, 218.4, 5.9)">r</text><text xml:space="preserve" font-family="IM_FELL_Great_Primer_Roman,IM FELL Great Primer" font-size="16.0" fill="#FFFFFF" transform="matrix(1.00, 0.00, -0.00, -1.00, 224.3, 5.9)">o</text><text xml:space="preserve" font-family="IM_FELL_Great_Primer_Roman,IM FELL Great Primer" font-size="16.0" fill="#FFFFFF" transform="matrix(1.00, 0.00, -0.00, -1.00, 232.4, 5.9)">n</text><text xml:space="preserve" font-family="IM_FELL_Great_Primer_Roman,IM FELL Great Primer" font-size="16.0" fill="#FFFFFF" transform="matrix(1.00, 0.00, -0.00, -1.00, 241.0, 5.9)">t</text><text xml:space="preserve" font-family="IM_FELL_Great_Primer_Roman,IM FELL Great Primer" font-size="16.0" fill="#FFFFFF" transform="matrix(1.00, 0.00, -0.00, -1.00, 246.7, 5.9)"> </text><text xml:space="preserve" font-family="IM_FELL_Great_Primer_Roman,IM FELL Great Primer" font-size="16.0" fill="#FFFFFF" transform="matrix(1.00, 0.00, -0.00, -1.00, 250.1, 5.9)">p</text><text xml:space="preserve" font-family="IM_FELL_Great_Primer_Roman,IM FELL Great Primer" font-size="16.0" fill="#FFFFFF" transform="matrix(1.00, 0.00, -0.00, -1.00, 258.2, 5.9)">a</text><text xml:space="preserve" font-family="IM_FELL_Great_Primer_Roman,IM FELL Great Primer" font-size="16.0" fill="#FFFFFF" transform="matrix(1.00, 0.00, -0.00, -1.00, 264.9, 5.9)">g</text><text xml:space="preserve" font-family="IM_FELL_Great_Primer_Roman,IM FELL Great Primer" font-size="16.0" fill="#FFFFFF" transform="matrix(1.00, 0.00, -0.00, -1.00, 272.4, 5.9)">e</text></g></svg>