<?xml version="1.0" encoding="UTF-8" standalone="no"?><svg xmlns="http://www.w3.org/2000/svg" xmlns:xlink="http://www.w3.org/1999/xlink" clip-rule="evenodd" stroke-miterlimit="10" viewBox="0 0 604 28"><desc>SVG generated by Keynote</desc><defs></defs><g transform="matrix(1.00, 0.00, -0.00, -1.00, 0.0, 28.0)"><text xml:space="preserve" font-family="IM_FELL_Great_Primer_SC,IM FELL Great Primer SC" font-size="24.6" fill="#FFFFFF" transform="matrix(1.00, 0.00, -0.00, -1.00, 0.7, 8.1)">E</text><text xml:space="preserve" font-family="IM_FELL_Great_Primer_SC,IM FELL Great Primer SC" font-size="24.6" fill="#FFFFFF" transform="matrix(1.00, 0.00, -0.00, -1.00, 18.3, 8.1)">x</text><text xml:space="preserve" font-family="IM_FELL_Great_Primer_SC,IM FELL Great Primer SC" font-size="24.6" fill="#FFFFFF" transform="matrix(1.00, 0.00, -0.00, -1.00, 29.3, 8.1)">c</text><text xml:space="preserve" font-family="IM_FELL_Great_Primer_SC,IM FELL Great Primer SC" font-size="24.6" fill="#FFFFFF" transform="matrix(1.00, 0.00, -0.00, -1.00, 39.9, 8.1)">e</text><text xml:space="preserve" font-family="IM_FELL_Great_Primer_SC,IM FELL Great Primer SC" font-size="24.6" fill="#FFFFFF" transform="matrix(1.00, 0.00, -0.00, -1.00, 52.9, 8.1)">r</text><text xml:space="preserve" font-family="IM_FELL_Great_Primer_SC,IM FELL Great Primer SC" font-size="24.6" fill="#FFFFFF" transform="matrix(1.00, 0.00, -0.00, -1.00, 65.6, 8.1)">p</text><text xml:space="preserve" font-family="IM_FELL_Great_Primer_SC,IM FELL Great Primer SC" font-size="24.6" fill="#FFFFFF" transform="matrix(1.00, 0.00, -0.00, -1.00, 76.6, 8.1)">t</text><text xml:space="preserve" font-family="IM_FELL_Great_Primer_SC,IM FELL Great Primer SC" font-size="24.6" fill="#FFFFFF" transform="matrix(1.00, 0.00, -0.00, -1.00, 89.9, 8.1)"> </text><text xml:space="preserve" font-family="IM_FELL_Great_Primer_SC,IM FELL Great Primer SC" font-size="24.6" fill="#FFFFFF" transform="matrix(1.00, 0.00, -0.00, -1.00, 95.2, 8.1)">f</text><text xml:space="preserve" font-family="IM_FELL_Great_Primer_SC,IM FELL Great Primer SC" font-size="24.6" fill="#FFFFFF" transform="matrix(1.00, 0.00, -0.00, -1.00, 106.4, 8.1)">r</text><text xml:space="preserve" font-family="IM_FELL_Great_Primer_SC,IM FELL Great Primer SC" font-size="24.6" fill="#FFFFFF" transform="matrix(1.00, 0.00, -0.00, -1.00, 119.0, 8.1)">o</text><text xml:space="preserve" font-family="IM_FELL_Great_Primer_SC,IM FELL Great Primer SC" font-size="24.6" fill="#FFFFFF" transform="matrix(1.00, 0.00, -0.00, -1.00, 131.8, 8.1)">m</text><text xml:space="preserve" font-family="IM_FELL_Great_Primer_SC,IM FELL Great Primer SC" font-size="24.6" fill="#FFFFFF" transform="matrix(1.00, 0.00, -0.00, -1.00, 149.4, 8.1)"> </text><text xml:space="preserve" font-family="IM_FELL_Great_Primer_SC,IM FELL Great Primer SC" font-size="24.6" fill="#FFFFFF" transform="matrix(1.00, 0.00, -0.00, -1.00, 154.7, 8.1)">“</text><text xml:space="preserve" font-family="IM_FELL_Great_Primer_SC,IM FELL Great Primer SC" font-size="24.6" fill="#FFFFFF" transform="matrix(1.00, 0.00, -0.00, -1.00, 166.1, 8.1)">C</text><text xml:space="preserve" font-family="IM_FELL_Great_Primer_SC,IM FELL Great Primer SC" font-size="24.6" fill="#FFFFFF" transform="matrix(1.00, 0.00, -0.00, -1.00, 182.9, 8.1)">B</text><text xml:space="preserve" font-family="IM_FELL_Great_Primer_SC,IM FELL Great Primer SC" font-size="24.6" fill="#FFFFFF" transform="matrix(1.00, 0.00, -0.00, -1.00, 199.2, 8.1)">C</text><text xml:space="preserve" font-family="IM_FELL_Great_Primer_SC,IM FELL Great Primer SC" font-size="24.6" fill="#FFFFFF" transform="matrix(1.00, 0.00, -0.00, -1.00, 216.0, 8.1)"> </text><text xml:space="preserve" font-family="IM_FELL_Great_Primer_SC,IM FELL Great Primer SC" font-size="24.6" fill="#FFFFFF" transform="matrix(1.00, 0.00, -0.00, -1.00, 221.3, 8.1)">-</text><text xml:space="preserve" font-family="IM_FELL_Great_Primer_SC,IM FELL Great Primer SC" font-size="24.6" fill="#FFFFFF" transform="matrix(1.00, 0.00, -0.00, -1.00, 231.4, 8.1)"> </text><text xml:space="preserve" font-family="IM_FELL_Great_Primer_SC,IM FELL Great Primer SC" font-size="24.6" fill="#FFFFFF" transform="matrix(1.00, 0.00, -0.00, -1.00, 236.7, 8.1)">H</text><text xml:space="preserve" font-family="IM_FELL_Great_Primer_SC,IM FELL Great Primer SC" font-size="24.6" fill="#FFFFFF" transform="matrix(1.00, 0.00, -0.00, -1.00, 258.0, 8.1)">a</text><text xml:space="preserve" font-family="IM_FELL_Great_Primer_SC,IM FELL Great Primer SC" font-size="24.6" fill="#FFFFFF" transform="matrix(1.00, 0.00, -0.00, -1.00, 269.4, 8.1)">l</text><text xml:space="preserve" font-family="IM_FELL_Great_Primer_SC,IM FELL Great Primer SC" font-size="24.6" fill="#FFFFFF" transform="matrix(1.00, 0.00, -0.00, -1.00, 282.0, 8.1)">i</text><text xml:space="preserve" font-family="IM_FELL_Great_Primer_SC,IM FELL Great Primer SC" font-size="24.6" fill="#FFFFFF" transform="matrix(1.00, 0.00, -0.00, -1.00, 290.4, 8.1)">f</text><text xml:space="preserve" font-family="IM_FELL_Great_Primer_SC,IM FELL Great Primer SC" font-size="24.6" fill="#FFFFFF" transform="matrix(1.00, 0.00, -0.00, -1.00, 301.2, 8.1)">a</text><text xml:space="preserve" font-family="IM_FELL_Great_Primer_SC,IM FELL Great Primer SC" font-size="24.6" fill="#FFFFFF" transform="matrix(1.00, 0.00, -0.00, -1.00, 312.5, 8.1)">x</text><text xml:space="preserve" font-family="IM_FELL_Great_Primer_SC,IM FELL Great Primer SC" font-size="24.6" fill="#FFFFFF" transform="matrix(1.00, 0.00, -0.00, -1.00, 323.8, 8.1)"> </text><text xml:space="preserve" font-family="IM_FELL_Great_Primer_SC,IM FELL Great Primer SC" font-size="24.6" fill="#FFFFFF" transform="matrix(1.00, 0.00, -0.00, -1.00, 329.1, 8.1)">E</text><text xml:space="preserve" font-family="IM_FELL_Great_Primer_SC,IM FELL Great Primer SC" font-size="24.6" fill="#FFFFFF" transform="matrix(1.00, 0.00, -0.00, -1.00, 346.8, 8.1)">x</text><text xml:space="preserve" font-family="IM_FELL_Great_Primer_SC,IM FELL Great Primer SC" font-size="24.6" fill="#FFFFFF" transform="matrix(1.00, 0.00, -0.00, -1.00, 358.1, 8.1)">p</text><text xml:space="preserve" font-family="IM_FELL_Great_Primer_SC,IM FELL Great Primer SC" font-size="24.6" fill="#FFFFFF" transform="matrix(1.00, 0.00, -0.00, -1.00, 368.9, 8.1)">l</text><text xml:space="preserve" font-family="IM_FELL_Great_Primer_SC,IM FELL Great Primer SC" font-size="24.6" fill="#FFFFFF" transform="matrix(1.00, 0.00, -0.00, -1.00, 381.5, 8.1)">o</text><text xml:space="preserve" font-family="IM_FELL_Great_Primer_SC,IM FELL Great Primer SC" font-size="24.6" fill="#FFFFFF" transform="matrix(1.00, 0.00, -0.00, -1.00, 394.5, 8.1)">s</text><text xml:space="preserve" font-family="IM_FELL_Great_Primer_SC,IM FELL Great Primer SC" font-size="24.6" fill="#FFFFFF" transform="matrix(1.00, 0.00, -0.00, -1.00, 404.1, 8.1)">i</text><text xml:space="preserve" font-family="IM_FELL_Great_Primer_SC,IM FELL Great Primer SC" font-size="24.6" fill="#FFFFFF" transform="matrix(1.00, 0.00, -0.00, -1.00, 412.2, 8.1)">o</text><text xml:space="preserve" font-family="IM_FELL_Great_Primer_SC,IM FELL Great Primer SC" font-size="24.6" fill="#FFFFFF" transform="matrix(1.00, 0.00, -0.00, -1.00, 425.1, 8.1)">n</text><text xml:space="preserve" font-family="IM_FELL_Great_Primer_SC,IM FELL Great Primer SC" font-size="24.6" fill="#FFFFFF" transform="matrix(1.00, 0.00, -0.00, -1.00, 439.4, 8.1)">"</text><text xml:space="preserve" font-family="IM_FELL_Great_Primer_SC,IM FELL Great Primer SC" font-size="24.6" fill="#FFFFFF" transform="matrix(1.00, 0.00, -0.00, -1.00, 450.9, 8.1)"> </text><text xml:space="preserve" font-family="IM_FELL_Great_Primer_SC,IM FELL Great Primer SC" font-size="24.6" fill="#FFFFFF" transform="matrix(1.00, 0.00, -0.00, -1.00, 456.2, 8.1)">w</text><text xml:space="preserve" font-family="IM_FELL_Great_Primer_SC,IM FELL Great Primer SC" font-size="24.6" fill="#FFFFFF" transform="matrix(1.00, 0.00, -0.00, -1.00, 472.8, 8.1)">e</text><text xml:space="preserve" font-family="IM_FELL_Great_Primer_SC,IM FELL Great Primer SC" font-size="24.6" fill="#FFFFFF" transform="matrix(1.00, 0.00, -0.00, -1.00, 485.7, 8.1)">b</text><text xml:space="preserve" font-family="IM_FELL_Great_Primer_SC,IM FELL Great Primer SC" font-size="24.6" fill="#FFFFFF" transform="matrix(1.00, 0.00, -0.00, -1.00, 497.2, 8.1)">s</text><text xml:space="preserve" font-family="IM_FELL_Great_Primer_SC,IM FELL Great Primer SC" font-size="24.6" fill="#FFFFFF" transform="matrix(1.00, 0.00, -0.00, -1.00, 506.7, 8.1)">i</text><text xml:space="preserve" font-family="IM_FELL_Great_Primer_SC,IM FELL Great Primer SC" font-size="24.6" fill="#FFFFFF" transform="matrix(1.00, 0.00, -0.00, -1.00, 515.1, 8.1)">t</text><text xml:space="preserve" font-family="IM_FELL_Great_Primer_SC,IM FELL Great Primer SC" font-size="24.6" fill="#FFFFFF" transform="matrix(1.00, 0.00, -0.00, -1.00, 528.4, 8.1)">e</text><text xml:space="preserve" font-family="IM_FELL_Great_Primer_SC,IM FELL Great Primer SC" font-size="24.6" fill="#FFFFFF" transform="matrix(1.00, 0.00, -0.00, -1.00, 541.3, 8.1)">,</text><text xml:space="preserve" font-family="IM_FELL_Great_Primer_SC,IM FELL Great Primer SC" font-size="24.6" fill="#FFFFFF" transform="matrix(1.00, 0.00, -0.00, -1.00, 547.7, 8.1)"> </text><text xml:space="preserve" font-family="IM_FELL_Great_Primer_SC,IM FELL Great Primer SC" font-size="24.6" fill="#FFFFFF" transform="matrix(1.00, 0.00, -0.00, -1.00, 553.0, 8.1)">2</text><text xml:space="preserve" font-family="IM_FELL_Great_Primer_SC,IM FELL Great Primer SC" font-size="24.6" fill="#FFFFFF" transform="matrix(1.00, 0.00, -0.00, -1.00, 565.2, 8.1)">0</text><text xml:space="preserve" font-family="IM_FELL_Great_Primer_SC,IM FELL Great Primer SC" font-size="24.6" fill="#FFFFFF" transform="matrix(1.00, 0.00, -0.00, -1.00, 579.5, 8.1)">0</text><text xml:space="preserve" font-family="IM_FELL_Great_Primer_SC,IM FELL Great Primer SC" font-size="24.6" fill="#FFFFFF" transform="matrix(1.00, 0.00, -0.00, -1.00, 593.9, 8.1)">3</text></g></svg>