<?xml version="1.0" encoding="UTF-8" standalone="no"?><svg xmlns="http://www.w3.org/2000/svg" xmlns:xlink="http://www.w3.org/1999/xlink" clip-rule="evenodd" stroke-miterlimit="10" viewBox="0 0 67 15"><desc>SVG generated by Keynote</desc><defs></defs><g transform="matrix(1.00, 0.00, -0.00, -1.00, 0.0, 15.0)"><text xml:space="preserve" font-family="IM_FELL_Great_Primer_Roman,IM FELL Great Primer" font-size="16.0" fill="#FFFFFF" transform="matrix(1.00, 0.00, -0.00, -1.00, 1.4, 1.9)">a</text><text xml:space="preserve" font-family="IM_FELL_Great_Primer_Roman,IM FELL Great Primer" font-size="16.0" fill="#FFFFFF" transform="matrix(1.00, 0.00, -0.00, -1.00, 8.2, 1.9)">n</text><text xml:space="preserve" font-family="IM_FELL_Great_Primer_Roman,IM FELL Great Primer" font-size="16.0" fill="#FFFFFF" transform="matrix(1.00, 0.00, -0.00, -1.00, 16.8, 1.9)">d</text><text xml:space="preserve" font-family="IM_FELL_Great_Primer_Roman,IM FELL Great Primer" font-size="16.0" fill="#FFFFFF" transform="matrix(1.00, 0.00, -0.00, -1.00, 24.9, 1.9)"> </text><text xml:space="preserve" font-family="IM_FELL_Great_Primer_Roman,IM FELL Great Primer" font-size="16.0" fill="#FFFFFF" transform="matrix(1.00, 0.00, -0.00, -1.00, 28.3, 1.9)">m</text><text xml:space="preserve" font-family="IM_FELL_Great_Primer_Roman,IM FELL Great Primer" font-size="16.0" fill="#FFFFFF" transform="matrix(1.00, 0.00, -0.00, -1.00, 41.7, 1.9)">o</text><text xml:space="preserve" font-family="IM_FELL_Great_Primer_Roman,IM FELL Great Primer" font-size="16.0" fill="#FFFFFF" transform="matrix(1.00, 0.00, -0.00, -1.00, 49.8, 1.9)">r</text><text xml:space="preserve" font-family="IM_FELL_Great_Primer_Roman,IM FELL Great Primer" font-size="16.0" fill="#FFFFFF" transform="matrix(1.00, 0.00, -0.00, -1.00, 55.7, 1.9)">e</text><text xml:space="preserve" font-family="IM_FELL_Great_Primer_Roman,IM FELL Great Primer" font-size="16.0" fill="#FFFFFF" transform="matrix(1.00, 0.00, -0.00, -1.00, 62.4, 1.9)">.</text></g></svg>