<?xml version="1.0" encoding="UTF-8" standalone="no"?><svg xmlns="http://www.w3.org/2000/svg" xmlns:xlink="http://www.w3.org/1999/xlink" clip-rule="evenodd" stroke-miterlimit="10" viewBox="0 0 110 15"><desc>SVG generated by Keynote</desc><defs></defs><g transform="matrix(1.00, 0.00, -0.00, -1.00, 0.0, 15.0)"><text xml:space="preserve" font-family="IM_FELL_Great_Primer_Italic,IM FELL Great Primer" font-style="italic" font-size="12.0" fill="#FFFFFF" transform="matrix(1.00, 0.00, -0.00, -1.00, 1.8, 5.0)">C</text><text xml:space="preserve" font-family="IM_FELL_Great_Primer_Italic,IM FELL Great Primer" font-style="italic" font-size="12.0" fill="#FFFFFF" transform="matrix(1.00, 0.00, -0.00, -1.00, 9.8, 5.0)">a</text><text xml:space="preserve" font-family="IM_FELL_Great_Primer_Italic,IM FELL Great Primer" font-style="italic" font-size="12.0" fill="#FFFFFF" transform="matrix(1.00, 0.00, -0.00, -1.00, 15.5, 5.0)">n</text><text xml:space="preserve" font-family="IM_FELL_Great_Primer_Italic,IM FELL Great Primer" font-style="italic" font-size="12.0" fill="#FFFFFF" transform="matrix(1.00, 0.00, -0.00, -1.00, 21.7, 5.0)">a</text><text xml:space="preserve" font-family="IM_FELL_Great_Primer_Italic,IM FELL Great Primer" font-style="italic" font-size="12.0" fill="#FFFFFF" transform="matrix(1.00, 0.00, -0.00, -1.00, 27.5, 5.0)">d</text><text xml:space="preserve" font-family="IM_FELL_Great_Primer_Italic,IM FELL Great Primer" font-style="italic" font-size="12.0" fill="#FFFFFF" transform="matrix(1.00, 0.00, -0.00, -1.00, 33.7, 5.0)">a</text><text xml:space="preserve" font-family="IM_FELL_Great_Primer_Italic,IM FELL Great Primer" font-style="italic" font-size="12.0" fill="#FFFFFF" transform="matrix(1.00, 0.00, -0.00, -1.00, 39.4, 5.0)"> </text><text xml:space="preserve" font-family="IM_FELL_Great_Primer_Italic,IM FELL Great Primer" font-style="italic" font-size="12.0" fill="#FFFFFF" transform="matrix(1.00, 0.00, -0.00, -1.00, 42.1, 5.0)">/</text><text xml:space="preserve" font-family="IM_FELL_Great_Primer_Italic,IM FELL Great Primer" font-style="italic" font-size="12.0" fill="#FFFFFF" transform="matrix(1.00, 0.00, -0.00, -1.00, 45.1, 5.0)"> </text><text xml:space="preserve" font-family="IM_FELL_Great_Primer_Italic,IM FELL Great Primer" font-style="italic" font-size="12.0" fill="#FFFFFF" transform="matrix(1.00, 0.00, -0.00, -1.00, 47.7, 5.0)">P</text><text xml:space="preserve" font-family="IM_FELL_Great_Primer_Italic,IM FELL Great Primer" font-style="italic" font-size="12.0" fill="#FFFFFF" transform="matrix(1.00, 0.00, -0.00, -1.00, 55.2, 5.0)">A</text><text xml:space="preserve" font-family="IM_FELL_Great_Primer_Italic,IM FELL Great Primer" font-style="italic" font-size="12.0" fill="#FFFFFF" transform="matrix(1.00, 0.00, -0.00, -1.00, 65.6, 5.0)">-</text><text xml:space="preserve" font-family="IM_FELL_Great_Primer_Italic,IM FELL Great Primer" font-style="italic" font-size="12.0" fill="#FFFFFF" transform="matrix(1.00, 0.00, -0.00, -1.00, 70.4, 5.0)">0</text><text xml:space="preserve" font-family="IM_FELL_Great_Primer_Italic,IM FELL Great Primer" font-style="italic" font-size="12.0" fill="#FFFFFF" transform="matrix(1.00, 0.00, -0.00, -1.00, 77.4, 5.0)">2</text><text xml:space="preserve" font-family="IM_FELL_Great_Primer_Italic,IM FELL Great Primer" font-style="italic" font-size="12.0" fill="#FFFFFF" transform="matrix(1.00, 0.00, -0.00, -1.00, 83.2, 5.0)">2</text><text xml:space="preserve" font-family="IM_FELL_Great_Primer_Italic,IM FELL Great Primer" font-style="italic" font-size="12.0" fill="#FFFFFF" transform="matrix(1.00, 0.00, -0.00, -1.00, 88.7, 5.0)">7</text><text xml:space="preserve" font-family="IM_FELL_Great_Primer_Italic,IM FELL Great Primer" font-style="italic" font-size="12.0" fill="#FFFFFF" transform="matrix(1.00, 0.00, -0.00, -1.00, 94.9, 5.0)">4</text><text xml:space="preserve" font-family="IM_FELL_Great_Primer_Italic,IM FELL Great Primer" font-style="italic" font-size="12.0" fill="#FFFFFF" transform="matrix(1.00, 0.00, -0.00, -1.00, 101.5, 5.0)">4</text></g></svg>