<?xml version="1.0" encoding="UTF-8" standalone="no"?><svg xmlns="http://www.w3.org/2000/svg" xmlns:xlink="http://www.w3.org/1999/xlink" clip-rule="evenodd" stroke-miterlimit="10" viewBox="0 0 720 450"><desc>SVG generated by Keynote</desc><defs></defs><g transform="matrix(1.00, 0.00, -0.00, -1.00, 0.0, 450.0)"><path d="M 0.0 450.0 L 720.0 450.0 L 720.0 0.0 L 0.0 0.0 Z M 0.0 450.0 " fill="#000000"></path><image xlink:href="../../F2FDF77C-6167-483E-9F69-29AE01608879/assets/04D778318D5413293AF3CC8AAF319846.jpeg" width="450.00" height="292.00" transform="matrix(1.54, 0.00, -0.00, -1.54, 13.3, 450.0)"></image><text xml:space="preserve" font-family="IM_FELL_Great_Primer_SC,IM FELL Great Primer SC" font-size="36.0" fill="#000000" transform="matrix(1.00, 0.00, -0.00, -1.00, 43.2, 390.7)">S</text><text xml:space="preserve" font-family="IM_FELL_Great_Primer_SC,IM FELL Great Primer SC" font-size="36.0" fill="#000000" transform="matrix(1.00, 0.00, -0.00, -1.00, 63.7, 390.7)">u</text><text xml:space="preserve" font-family="IM_FELL_Great_Primer_SC,IM FELL Great Primer SC" font-size="36.0" fill="#000000" transform="matrix(1.00, 0.00, -0.00, -1.00, 83.4, 390.7)">g</text><text xml:space="preserve" font-family="IM_FELL_Great_Primer_SC,IM FELL Great Primer SC" font-size="36.0" fill="#000000" transform="matrix(1.00, 0.00, -0.00, -1.00, 102.5, 390.7)">a</text><text xml:space="preserve" font-family="IM_FELL_Great_Primer_SC,IM FELL Great Primer SC" font-size="36.0" fill="#000000" transform="matrix(1.00, 0.00, -0.00, -1.00, 119.1, 390.7)">r</text><text xml:space="preserve" font-family="IM_FELL_Great_Primer_SC,IM FELL Great Primer SC" font-size="36.0" fill="#000000" transform="matrix(1.00, 0.00, -0.00, -1.00, 137.7, 390.7)"> </text><text xml:space="preserve" font-family="IM_FELL_Great_Primer_SC,IM FELL Great Primer SC" font-size="36.0" fill="#000000" transform="matrix(1.00, 0.00, -0.00, -1.00, 145.5, 390.7)">R</text><text xml:space="preserve" font-family="IM_FELL_Great_Primer_SC,IM FELL Great Primer SC" font-size="36.0" fill="#000000" transform="matrix(1.00, 0.00, -0.00, -1.00, 170.8, 390.7)">e</text><text xml:space="preserve" font-family="IM_FELL_Great_Primer_SC,IM FELL Great Primer SC" font-size="36.0" fill="#000000" transform="matrix(1.00, 0.00, -0.00, -1.00, 189.6, 390.7)">f</text><text xml:space="preserve" font-family="IM_FELL_Great_Primer_SC,IM FELL Great Primer SC" font-size="36.0" fill="#000000" transform="matrix(1.00, 0.00, -0.00, -1.00, 206.0, 390.7)">i</text><text xml:space="preserve" font-family="IM_FELL_Great_Primer_SC,IM FELL Great Primer SC" font-size="36.0" fill="#000000" transform="matrix(1.00, 0.00, -0.00, -1.00, 218.3, 390.7)">n</text><text xml:space="preserve" font-family="IM_FELL_Great_Primer_SC,IM FELL Great Primer SC" font-size="36.0" fill="#000000" transform="matrix(1.00, 0.00, -0.00, -1.00, 239.2, 390.7)">e</text><text xml:space="preserve" font-family="IM_FELL_Great_Primer_SC,IM FELL Great Primer SC" font-size="36.0" fill="#000000" transform="matrix(1.00, 0.00, -0.00, -1.00, 258.0, 390.7)">r</text><text xml:space="preserve" font-family="IM_FELL_Great_Primer_SC,IM FELL Great Primer SC" font-size="36.0" fill="#000000" transform="matrix(1.00, 0.00, -0.00, -1.00, 276.4, 390.7)">y</text><text xml:space="preserve" font-family="IM_FELL_Great_Primer_Roman,IM FELL Great Primer" font-size="14.0" fill="#000000" transform="matrix(1.00, 0.00, -0.00, -1.00, 43.2, 367.7)">B</text><text xml:space="preserve" font-family="IM_FELL_Great_Primer_Roman,IM FELL Great Primer" font-size="14.0" fill="#000000" transform="matrix(1.00, 0.00, -0.00, -1.00, 52.5, 367.7)">e</text><text xml:space="preserve" font-family="IM_FELL_Great_Primer_Roman,IM FELL Great Primer" font-size="14.0" fill="#000000" transform="matrix(1.00, 0.00, -0.00, -1.00, 58.3, 367.7)">f</text><text xml:space="preserve" font-family="IM_FELL_Great_Primer_Roman,IM FELL Great Primer" font-size="14.0" fill="#000000" transform="matrix(1.00, 0.00, -0.00, -1.00, 62.9, 367.7)">o</text><text xml:space="preserve" font-family="IM_FELL_Great_Primer_Roman,IM FELL Great Primer" font-size="14.0" fill="#000000" transform="matrix(1.00, 0.00, -0.00, -1.00, 70.0, 367.7)">r</text><text xml:space="preserve" font-family="IM_FELL_Great_Primer_Roman,IM FELL Great Primer" font-size="14.0" fill="#000000" transform="matrix(1.00, 0.00, -0.00, -1.00, 75.2, 367.7)">e</text></g></svg>