<?xml version="1.0" encoding="UTF-8" standalone="no"?><svg xmlns="http://www.w3.org/2000/svg" xmlns:xlink="http://www.w3.org/1999/xlink" clip-rule="evenodd" stroke-miterlimit="10" viewBox="0 0 720 450"><desc>SVG generated by Keynote</desc><defs></defs><g transform="matrix(1.00, 0.00, -0.00, -1.00, 0.0, 450.0)"><path d="M 0.0 450.0 L 720.0 450.0 L 720.0 0.0 L 0.0 0.0 Z M 0.0 450.0 " fill="#000000"></path><text xml:space="preserve" font-family="IM_FELL_Great_Primer_SC,IM FELL Great Primer SC" font-size="36.0" fill="#FFFFFF" transform="matrix(1.00, 0.00, -0.00, -1.00, 43.2, 390.7)">S</text><text xml:space="preserve" font-family="IM_FELL_Great_Primer_SC,IM FELL Great Primer SC" font-size="36.0" fill="#FFFFFF" transform="matrix(1.00, 0.00, -0.00, -1.00, 63.7, 390.7)">i</text><text xml:space="preserve" font-family="IM_FELL_Great_Primer_SC,IM FELL Great Primer SC" font-size="36.0" fill="#FFFFFF" transform="matrix(1.00, 0.00, -0.00, -1.00, 75.6, 390.7)">g</text><text xml:space="preserve" font-family="IM_FELL_Great_Primer_SC,IM FELL Great Primer SC" font-size="36.0" fill="#FFFFFF" transform="matrix(1.00, 0.00, -0.00, -1.00, 94.7, 390.7)">n</text><text xml:space="preserve" font-family="IM_FELL_Great_Primer_SC,IM FELL Great Primer SC" font-size="36.0" fill="#FFFFFF" transform="matrix(1.00, 0.00, -0.00, -1.00, 115.6, 390.7)">i</text><text xml:space="preserve" font-family="IM_FELL_Great_Primer_SC,IM FELL Great Primer SC" font-size="36.0" fill="#FFFFFF" transform="matrix(1.00, 0.00, -0.00, -1.00, 127.9, 390.7)">f</text><text xml:space="preserve" font-family="IM_FELL_Great_Primer_SC,IM FELL Great Primer SC" font-size="36.0" fill="#FFFFFF" transform="matrix(1.00, 0.00, -0.00, -1.00, 144.3, 390.7)">i</text><text xml:space="preserve" font-family="IM_FELL_Great_Primer_SC,IM FELL Great Primer SC" font-size="36.0" fill="#FFFFFF" transform="matrix(1.00, 0.00, -0.00, -1.00, 156.2, 390.7)">c</text><text xml:space="preserve" font-family="IM_FELL_Great_Primer_SC,IM FELL Great Primer SC" font-size="36.0" fill="#FFFFFF" transform="matrix(1.00, 0.00, -0.00, -1.00, 171.8, 390.7)">a</text><text xml:space="preserve" font-family="IM_FELL_Great_Primer_SC,IM FELL Great Primer SC" font-size="36.0" fill="#FFFFFF" transform="matrix(1.00, 0.00, -0.00, -1.00, 188.3, 390.7)">n</text><text xml:space="preserve" font-family="IM_FELL_Great_Primer_SC,IM FELL Great Primer SC" font-size="36.0" fill="#FFFFFF" transform="matrix(1.00, 0.00, -0.00, -1.00, 208.9, 390.7)">c</text><text xml:space="preserve" font-family="IM_FELL_Great_Primer_SC,IM FELL Great Primer SC" font-size="36.0" fill="#FFFFFF" transform="matrix(1.00, 0.00, -0.00, -1.00, 224.5, 390.7)">e</text></g></svg>