<?xml version="1.0" encoding="UTF-8" standalone="no"?><svg xmlns="http://www.w3.org/2000/svg" xmlns:xlink="http://www.w3.org/1999/xlink" clip-rule="evenodd" stroke-miterlimit="10" viewBox="0 0 720 450"><desc>SVG generated by Keynote</desc><defs></defs><g transform="matrix(1.00, 0.00, -0.00, -1.00, 0.0, 450.0)"><path d="M 0.0 450.0 L 720.0 450.0 L 720.0 0.0 L 0.0 0.0 Z M 0.0 450.0 " fill="#000000"></path><text xml:space="preserve" font-family="IM_FELL_Great_Primer_SC,IM FELL Great Primer SC" font-size="36.0" fill="#FFFFFF" transform="matrix(1.00, 0.00, -0.00, -1.00, 224.3, 155.2)">D</text><text xml:space="preserve" font-family="IM_FELL_Great_Primer_SC,IM FELL Great Primer SC" font-size="36.0" fill="#FFFFFF" transform="matrix(1.00, 0.00, -0.00, -1.00, 252.7, 155.2)">e</text><text xml:space="preserve" font-family="IM_FELL_Great_Primer_SC,IM FELL Great Primer SC" font-size="36.0" fill="#FFFFFF" transform="matrix(1.00, 0.00, -0.00, -1.00, 271.6, 155.2)">c</text><text xml:space="preserve" font-family="IM_FELL_Great_Primer_SC,IM FELL Great Primer SC" font-size="36.0" fill="#FFFFFF" transform="matrix(1.00, 0.00, -0.00, -1.00, 287.2, 155.2)">e</text><text xml:space="preserve" font-family="IM_FELL_Great_Primer_SC,IM FELL Great Primer SC" font-size="36.0" fill="#FFFFFF" transform="matrix(1.00, 0.00, -0.00, -1.00, 306.0, 155.2)">m</text><text xml:space="preserve" font-family="IM_FELL_Great_Primer_SC,IM FELL Great Primer SC" font-size="36.0" fill="#FFFFFF" transform="matrix(1.00, 0.00, -0.00, -1.00, 331.7, 155.2)">b</text><text xml:space="preserve" font-family="IM_FELL_Great_Primer_SC,IM FELL Great Primer SC" font-size="36.0" fill="#FFFFFF" transform="matrix(1.00, 0.00, -0.00, -1.00, 348.5, 155.2)">e</text><text xml:space="preserve" font-family="IM_FELL_Great_Primer_SC,IM FELL Great Primer SC" font-size="36.0" fill="#FFFFFF" transform="matrix(1.00, 0.00, -0.00, -1.00, 367.4, 155.2)">r</text><text xml:space="preserve" font-family="IM_FELL_Great_Primer_SC,IM FELL Great Primer SC" font-size="36.0" fill="#FFFFFF" transform="matrix(1.00, 0.00, -0.00, -1.00, 386.0, 155.2)"> </text><text xml:space="preserve" font-family="IM_FELL_Great_Primer_SC,IM FELL Great Primer SC" font-size="36.0" fill="#FFFFFF" transform="matrix(1.00, 0.00, -0.00, -1.00, 393.8, 155.2)">6</text><text xml:space="preserve" font-family="IM_FELL_Great_Primer_SC,IM FELL Great Primer SC" font-size="36.0" fill="#FFFFFF" transform="matrix(1.00, 0.00, -0.00, -1.00, 412.2, 155.2)">,</text><text xml:space="preserve" font-family="IM_FELL_Great_Primer_SC,IM FELL Great Primer SC" font-size="36.0" fill="#FFFFFF" transform="matrix(1.00, 0.00, -0.00, -1.00, 421.5, 155.2)"> </text><text xml:space="preserve" font-family="IM_FELL_Great_Primer_SC,IM FELL Great Primer SC" font-size="36.0" fill="#FFFFFF" transform="matrix(1.00, 0.00, -0.00, -1.00, 429.3, 155.2)">1</text><text xml:space="preserve" font-family="IM_FELL_Great_Primer_SC,IM FELL Great Primer SC" font-size="36.0" fill="#FFFFFF" transform="matrix(1.00, 0.00, -0.00, -1.00, 443.3, 155.2)">9</text><text xml:space="preserve" font-family="IM_FELL_Great_Primer_SC,IM FELL Great Primer SC" font-size="36.0" fill="#FFFFFF" transform="matrix(1.00, 0.00, -0.00, -1.00, 462.3, 155.2)">1</text><text xml:space="preserve" font-family="IM_FELL_Great_Primer_SC,IM FELL Great Primer SC" font-size="36.0" fill="#FFFFFF" transform="matrix(1.00, 0.00, -0.00, -1.00, 476.6, 155.2)">7</text><text xml:space="preserve" font-family="Bushcraft-distress,Bushcraft" font-weight="bold" font-size="74.0" fill="#FFFFFF" transform="matrix(1.00, 0.00, -0.00, -1.00, 103.9, 247.8)">H</text><text xml:space="preserve" font-family="Bushcraft-distress,Bushcraft" font-weight="bold" font-size="74.0" fill="#FFFFFF" transform="matrix(1.00, 0.00, -0.00, -1.00, 136.4, 247.8)">a</text><text xml:space="preserve" font-family="Bushcraft-distress,Bushcraft" font-weight="bold" font-size="74.0" fill="#FFFFFF" transform="matrix(1.00, 0.00, -0.00, -1.00, 172.5, 247.8)">l</text><text xml:space="preserve" font-family="Bushcraft-distress,Bushcraft" font-weight="bold" font-size="74.0" fill="#FFFFFF" transform="matrix(1.00, 0.00, -0.00, -1.00, 203.2, 247.8)">i</text><text xml:space="preserve" font-family="Bushcraft-distress,Bushcraft" font-weight="bold" font-size="74.0" fill="#FFFFFF" transform="matrix(1.00, 0.00, -0.00, -1.00, 217.1, 247.8)">f</text><text xml:space="preserve" font-family="Bushcraft-distress,Bushcraft" font-weight="bold" font-size="74.0" fill="#FFFFFF" transform="matrix(1.00, 0.00, -0.00, -1.00, 245.3, 247.8)">a</text><text xml:space="preserve" font-family="Bushcraft-distress,Bushcraft" font-weight="bold" font-size="74.0" fill="#FFFFFF" transform="matrix(1.00, 0.00, -0.00, -1.00, 281.4, 247.8)">x</text><text xml:space="preserve" font-family="Bushcraft-distress,Bushcraft" font-weight="bold" font-size="74.0" fill="#FFFFFF" transform="matrix(1.00, 0.00, -0.00, -1.00, 317.9, 247.8)"> </text><text xml:space="preserve" font-family="Bushcraft-distress,Bushcraft" font-weight="bold" font-size="74.0" fill="#FFFFFF" transform="matrix(1.00, 0.00, -0.00, -1.00, 335.0, 247.8)">E</text><text xml:space="preserve" font-family="Bushcraft-distress,Bushcraft" font-weight="bold" font-size="74.0" fill="#FFFFFF" transform="matrix(1.00, 0.00, -0.00, -1.00, 365.4, 247.8)">x</text><text xml:space="preserve" font-family="Bushcraft-distress,Bushcraft" font-weight="bold" font-size="74.0" fill="#FFFFFF" transform="matrix(1.00, 0.00, -0.00, -1.00, 401.9, 247.8)">p</text><text xml:space="preserve" font-family="Bushcraft-distress,Bushcraft" font-weight="bold" font-size="74.0" fill="#FFFFFF" transform="matrix(1.00, 0.00, -0.00, -1.00, 434.6, 247.8)">l</text><text xml:space="preserve" font-family="Bushcraft-distress,Bushcraft" font-weight="bold" font-size="74.0" fill="#FFFFFF" transform="matrix(1.00, 0.00, -0.00, -1.00, 465.3, 247.8)">o</text><text xml:space="preserve" font-family="Bushcraft-distress,Bushcraft" font-weight="bold" font-size="74.0" fill="#FFFFFF" transform="matrix(1.00, 0.00, -0.00, -1.00, 499.4, 247.8)">s</text><text xml:space="preserve" font-family="Bushcraft-distress,Bushcraft" font-weight="bold" font-size="74.0" fill="#FFFFFF" transform="matrix(1.00, 0.00, -0.00, -1.00, 533.5, 247.8)">i</text><text xml:space="preserve" font-family="Bushcraft-distress,Bushcraft" font-weight="bold" font-size="74.0" fill="#FFFFFF" transform="matrix(1.00, 0.00, -0.00, -1.00, 547.3, 247.8)">o</text><text xml:space="preserve" font-family="Bushcraft-distress,Bushcraft" font-weight="bold" font-size="74.0" fill="#FFFFFF" transform="matrix(1.00, 0.00, -0.00, -1.00, 581.4, 247.8)">n</text></g></svg>