<?xml version="1.0" encoding="UTF-8" standalone="no"?><svg xmlns="http://www.w3.org/2000/svg" xmlns:xlink="http://www.w3.org/1999/xlink" clip-rule="evenodd" stroke-miterlimit="10" viewBox="0 0 513 59"><desc>SVG generated by Keynote</desc><defs></defs><g transform="matrix(1.00, 0.00, -0.00, -1.00, 0.0, 59.0)"><text xml:space="preserve" font-family="Bushcraft-distress,Bushcraft" font-weight="bold" font-size="74.0" fill="#FFFFFF" transform="matrix(1.00, 0.00, -0.00, -1.00, 1.9, 2.8)">H</text><text xml:space="preserve" font-family="Bushcraft-distress,Bushcraft" font-weight="bold" font-size="74.0" fill="#FFFFFF" transform="matrix(1.00, 0.00, -0.00, -1.00, 34.4, 2.8)">a</text><text xml:space="preserve" font-family="Bushcraft-distress,Bushcraft" font-weight="bold" font-size="74.0" fill="#FFFFFF" transform="matrix(1.00, 0.00, -0.00, -1.00, 70.5, 2.8)">l</text><text xml:space="preserve" font-family="Bushcraft-distress,Bushcraft" font-weight="bold" font-size="74.0" fill="#FFFFFF" transform="matrix(1.00, 0.00, -0.00, -1.00, 101.2, 2.8)">i</text><text xml:space="preserve" font-family="Bushcraft-distress,Bushcraft" font-weight="bold" font-size="74.0" fill="#FFFFFF" transform="matrix(1.00, 0.00, -0.00, -1.00, 115.1, 2.8)">f</text><text xml:space="preserve" font-family="Bushcraft-distress,Bushcraft" font-weight="bold" font-size="74.0" fill="#FFFFFF" transform="matrix(1.00, 0.00, -0.00, -1.00, 143.3, 2.8)">a</text><text xml:space="preserve" font-family="Bushcraft-distress,Bushcraft" font-weight="bold" font-size="74.0" fill="#FFFFFF" transform="matrix(1.00, 0.00, -0.00, -1.00, 179.4, 2.8)">x</text><text xml:space="preserve" font-family="Bushcraft-distress,Bushcraft" font-weight="bold" font-size="74.0" fill="#FFFFFF" transform="matrix(1.00, 0.00, -0.00, -1.00, 215.9, 2.8)"> </text><text xml:space="preserve" font-family="Bushcraft-distress,Bushcraft" font-weight="bold" font-size="74.0" fill="#FFFFFF" transform="matrix(1.00, 0.00, -0.00, -1.00, 233.0, 2.8)">E</text><text xml:space="preserve" font-family="Bushcraft-distress,Bushcraft" font-weight="bold" font-size="74.0" fill="#FFFFFF" transform="matrix(1.00, 0.00, -0.00, -1.00, 263.4, 2.8)">x</text><text xml:space="preserve" font-family="Bushcraft-distress,Bushcraft" font-weight="bold" font-size="74.0" fill="#FFFFFF" transform="matrix(1.00, 0.00, -0.00, -1.00, 299.9, 2.8)">p</text><text xml:space="preserve" font-family="Bushcraft-distress,Bushcraft" font-weight="bold" font-size="74.0" fill="#FFFFFF" transform="matrix(1.00, 0.00, -0.00, -1.00, 332.6, 2.8)">l</text><text xml:space="preserve" font-family="Bushcraft-distress,Bushcraft" font-weight="bold" font-size="74.0" fill="#FFFFFF" transform="matrix(1.00, 0.00, -0.00, -1.00, 363.3, 2.8)">o</text><text xml:space="preserve" font-family="Bushcraft-distress,Bushcraft" font-weight="bold" font-size="74.0" fill="#FFFFFF" transform="matrix(1.00, 0.00, -0.00, -1.00, 397.4, 2.8)">s</text><text xml:space="preserve" font-family="Bushcraft-distress,Bushcraft" font-weight="bold" font-size="74.0" fill="#FFFFFF" transform="matrix(1.00, 0.00, -0.00, -1.00, 431.5, 2.8)">i</text><text xml:space="preserve" font-family="Bushcraft-distress,Bushcraft" font-weight="bold" font-size="74.0" fill="#FFFFFF" transform="matrix(1.00, 0.00, -0.00, -1.00, 445.3, 2.8)">o</text><text xml:space="preserve" font-family="Bushcraft-distress,Bushcraft" font-weight="bold" font-size="74.0" fill="#FFFFFF" transform="matrix(1.00, 0.00, -0.00, -1.00, 479.4, 2.8)">n</text></g></svg>